<?xml version="1.0" encoding="iso-8859-1"?>
<!-- Generator: Adobe Illustrator 19.0.0, SVG Export Plug-In . SVG Version: 6.00 Build 0)  -->
<svg version="1.1" id="Capa_1" xmlns="http://www.w3.org/2000/svg" xmlns:xlink="http://www.w3.org/1999/xlink" x="0px" y="0px"
	 viewBox="0 0 480 480" style="enable-background:new 0 0 480 480;" xml:space="preserve">
<path style="fill:#FFB40E;" d="M72,240c0,26.512,21.488,48,48,48h40h40h40h40l48,72h24l-24-72h16c30.928,0,56-25.072,56-56
	c0-22.76-13.608-42.312-33.104-51.072c-3.384-16.872-14.432-30.872-29.272-38.552C329.928,138.392,321.264,136,312,136
	c-2.488,0-4.92,0.216-7.32,0.528c-5.592-11.472-14.184-21.168-24.68-28.24C268.56,100.576,254.84,96,240,96s-28.56,4.576-40,12.288
	c-10.496,7.072-19.088,16.768-24.68,28.24c-2.4-0.312-4.832-0.528-7.32-0.528c-9.28,0-18.008,2.296-25.712,6.288
	C124.304,151.608,112,170.352,112,192c0,0.24,0.032,0.472,0.04,0.712C89.328,196.512,72,216.208,72,240z"/>
<g>
	<path style="fill:#06AED5;" d="M416,8c-30.928,0-56,25.072-56,56c0,15.464,6.272,29.464,16.4,39.6
		c10.136,10.128,24.136,16.4,39.6,16.4c30.928,0,56-25.072,56-56S446.928,8,416,8z"/>
	<circle style="fill:#06AED5;" cx="416" cy="416" r="56"/>
	<polygon style="fill:#06AED5;" points="104,104 104,56 56,56 56,8 8,8 8,136 104,136 	"/>
</g>
<polygon style="fill:#086788;" points="104,56 56,8 56,56 "/>
<polygon style="fill:#06AED5;" points="104,392 56,392 56,344 8,344 8,472 104,472 "/>
<polygon style="fill:#086788;" points="104,392 80,368 56,344 56,392 "/>
<g>
	<circle style="fill:#DD3232;" cx="240" cy="24" r="16"/>
	<circle style="fill:#DD3232;" cx="304" cy="40" r="16"/>
	<circle style="fill:#DD3232;" cx="176" cy="40" r="16"/>
	<circle style="fill:#DD3232;" cx="240" cy="456" r="16"/>
	<circle style="fill:#DD3232;" cx="304" cy="440" r="16"/>
	<circle style="fill:#DD3232;" cx="176" cy="440" r="16"/>
</g>
<g>
	<path style="fill:#242A40;" d="M136,176v16c26.472,0,48,21.528,48,48h16C200,204.712,171.288,176,136,176z"/>
	<path style="fill:#242A40;" d="M304,256h16c0-22.056,17.944-40,40-40v-16C329.12,200,304,225.128,304,256z"/>
	<path style="fill:#242A40;" d="M240,144h-16c0,26.472,21.528,48,48,48v-16C254.352,176,240,161.648,240,144z"/>
	<path style="fill:#242A40;" d="M416,128c35.288,0,64-28.712,64-64S451.288,0,416,0s-64,28.712-64,64
		c0,14.768,5.072,28.336,13.504,39.184l-29.552,29.552C328.504,129.704,320.416,128,312,128c-0.896,0-1.816,0.024-2.752,0.072
		c-5.496-9.568-12.768-17.672-21.248-24.064v-3.728l20.44-13.624C310.664,85.168,312,82.672,312,80V62.528
		c9.288-3.312,16-12.112,16-22.528c0-13.232-10.768-24-24-24s-24,10.768-24,24c0,10.416,6.712,19.216,16,22.528V75.72l-20.44,13.624
		c-1.88,1.248-3.064,3.24-3.408,5.424c-7.56-3.312-15.688-5.408-24.152-6.248v-42c9.288-3.304,16-12.104,16-22.52
		c0-13.232-10.768-24-24-24s-24,10.768-24,24c0,10.416,6.712,19.216,16,22.528v42c-8.464,0.84-16.592,2.928-24.152,6.248
		c-0.344-2.192-1.536-4.176-3.408-5.424L184,75.72V62.528c9.288-3.312,16-12.112,16-22.528c0-13.232-10.768-24-24-24
		s-24,10.768-24,24c0,10.416,6.712,19.216,16,22.528V80c0,2.672,1.336,5.168,3.56,6.656L192,100.28v3.728
		c-8.48,6.392-15.752,14.496-21.248,24.064C169.816,128.024,168.896,128,168,128c-8.488,0-16.584,1.672-24,4.688l-32-32V56
		c0-0.176-0.088-0.328-0.104-0.504c-0.048-0.704-0.184-1.384-0.408-2.056c-0.088-0.256-0.152-0.512-0.272-0.76
		c-0.392-0.848-0.88-1.656-1.568-2.344l-48-48c-0.688-0.688-1.496-1.176-2.352-1.568C59.064,0.664,58.84,0.6,58.608,0.52
		c-0.704-0.248-1.424-0.392-2.168-0.432C56.288,0.08,56.152,0,56,0H8C3.584,0,0,3.576,0,8v128c0,4.424,3.584,8,8,8h96
		c4.416,0,8-3.576,8-8v-12.688l17.568,17.568c-14.08,10.616-23.672,26.88-25.312,45.416C80.576,193.168,64,214.8,64,240
		c0,30.872,25.12,56,56,56h20.688L80,356.688l-18.344-18.344c-0.696-0.696-1.504-1.184-2.36-1.576
		c-0.224-0.104-0.456-0.168-0.688-0.248c-0.704-0.248-1.424-0.392-2.168-0.432C56.288,336.08,56.152,336,56,336H8
		c-4.416,0-8,3.576-8,8v128c0,4.424,3.584,8,8,8h96c4.416,0,8-3.576,8-8v-80c0-0.176-0.088-0.328-0.104-0.504
		c-0.048-0.704-0.184-1.384-0.408-2.056c-0.088-0.256-0.152-0.512-0.272-0.76c-0.392-0.848-0.88-1.656-1.568-2.344L91.312,368l72-72
		H192v83.72l-20.44,13.624c-2.224,1.488-3.56,3.984-3.56,6.656v17.472c-9.288,3.312-16,12.112-16,22.528c0,13.232,10.768,24,24,24
		s24-10.768,24-24c0-10.416-6.712-19.216-16-22.528V404.28l20.44-13.624c2.224-1.488,3.56-3.984,3.56-6.656v-88h24v137.472
		c-9.288,3.312-16,12.112-16,22.528c0,13.232,10.768,24,24,24s24-10.768,24-24c0-10.416-6.712-19.216-16-22.528V296h24v88
		c0,2.672,1.336,5.168,3.56,6.656L296,404.28v13.192c-9.288,3.312-16,12.112-16,22.528c0,13.232,10.768,24,24,24s24-10.768,24-24
		c0-10.416-6.712-19.216-16-22.528V400c0-2.672-1.336-5.168-3.56-6.656L288,379.72v-65.296l33.344,50.016
		c1.488,2.224,3.984,3.56,6.656,3.56h24c2.568,0,4.984-1.232,6.488-3.32s1.912-4.776,1.104-7.208L339.096,296h1.592l58.352,58.352
		C371.968,361.816,352,386.592,352,416c0,35.288,28.712,64,64,64s64-28.712,64-64c0-34.112-26.848-61.992-60.512-63.824
		l-58.528-58.528C388.032,286.184,408,261.408,408,232c0-23.784-13.296-45.568-34.184-56.592
		c-3.776-14.088-12.216-26.096-23.4-34.512l26.4-26.4C387.664,122.928,401.232,128,416,128z M304,32c4.408,0,8,3.584,8,8
		s-3.592,8-8,8s-8-3.584-8-8S299.592,32,304,32z M176,32c4.408,0,8,3.584,8,8s-3.592,8-8,8s-8-3.584-8-8S171.592,32,176,32z
		 M84.688,48H64V27.312L84.688,48z M16,128V16h32v40c0,4.424,3.584,8,8,8h40v64H16z M84.688,384H64v-20.688L84.688,384z M16,464V352
		h32v40c0,4.424,3.584,8,8,8h40v64H16z M176,448c-4.408,0-8-3.584-8-8s3.592-8,8-8s8,3.584,8,8S180.408,448,176,448z M240,464
		c-4.408,0-8-3.584-8-8s3.592-8,8-8c4.408,0,8,3.584,8,8S244.408,464,240,464z M304,448c-4.408,0-8-3.584-8-8s3.592-8,8-8
		s8,3.584,8,8S308.408,448,304,448z M240,16c4.408,0,8,3.584,8,8s-3.592,8-8,8s-8-3.584-8-8S235.592,16,240,16z M464,416
		c0,26.472-21.528,48-48,48s-48-21.528-48-48s21.528-48,48-48S464,389.528,464,416z M359.048,182.496
		c0.504,2.536,2.208,4.672,4.568,5.728C380.856,195.968,392,213.16,392,232c0,25.408-19.848,46.208-44.848,47.84l-21.496-21.496
		l-11.312,11.312l10.896,10.896c-1.472,0.544-2.784,1.464-3.728,2.768c-1.504,2.088-1.912,4.776-1.104,7.208L340.904,352h-8.624
		L288,285.576V256h-16v24h-24v-32h-16v32h-24v-24h-16v24h-12.688l2.344-2.344l-11.312-11.312L156.688,280H120
		c-22.056,0-40-17.944-40-40c0-19.592,14.024-36.168,33.352-39.4c3.856-0.648,6.648-4.696,6.648-8.6
		c0-16.472,8.344-31.024,21.016-39.672l29.328,29.328l11.312-11.312L156.712,145.4c3.624-0.88,7.392-1.4,11.288-1.4
		c2.136,0,4.224,0.192,6.288,0.464c3.44,0.472,6.72-1.328,8.224-4.424c2.56-5.256,5.792-9.992,9.496-14.24V152h16v-39.336
		c7.288-4.232,15.4-7.032,24-8.104V120h16v-15.44c8.6,1.064,16.712,3.872,24,8.104V152h16v-26.2c3.696,4.24,6.928,8.984,9.496,14.24
		c1.504,3.096,4.84,4.888,8.224,4.424c2.048-0.272,4.136-0.464,6.272-0.464c3.856,0,7.568,0.616,11.192,1.496l-8.848,8.848
		l11.312,11.312l13.2-13.2C348.976,159.336,356.52,169.872,359.048,182.496z M368,64c0-26.472,21.528-48,48-48s48,21.528,48,48
		s-21.528,48-48,48c-10.352,0-19.92-3.328-27.768-8.92l17.424-17.424l-11.312-11.312L376.92,91.768C371.328,83.92,368,74.352,368,64
		z"/>
	<path style="fill:#242A40;" d="M416,48c4.408,0,8,3.584,8,8s-3.592,8-8,8c-4.416,0-8,3.576-8,8v16h16v-9.368
		c9.312-3.304,16-12.2,16-22.632c0-13.232-10.768-24-24-24s-24,10.768-24,24h16C408,51.584,411.592,48,416,48z"/>
	<path style="fill:#242A40;" d="M392,408h16c0-4.416,3.592-8,8-8s8,3.584,8,8s-3.592,8-8,8c-4.416,0-8,3.576-8,8v16h16v-9.368
		c9.312-3.304,16-12.2,16-22.632c0-13.232-10.768-24-24-24S392,394.768,392,408z"/>
	<rect x="408" y="448" style="fill:#242A40;" width="16" height="8"/>
	<rect x="408" y="96" style="fill:#242A40;" width="16" height="8"/>
</g>
<g>
</g>
<g>
</g>
<g>
</g>
<g>
</g>
<g>
</g>
<g>
</g>
<g>
</g>
<g>
</g>
<g>
</g>
<g>
</g>
<g>
</g>
<g>
</g>
<g>
</g>
<g>
</g>
<g>
</g>
</svg>
