<?xml version="1.0" encoding="UTF-8" standalone="no"?>
<svg
   xmlns:dc="http://purl.org/dc/elements/1.1/"
   xmlns:cc="http://creativecommons.org/ns#"
   xmlns:rdf="http://www.w3.org/1999/02/22-rdf-syntax-ns#"
   xmlns:svg="http://www.w3.org/2000/svg"
   xmlns="http://www.w3.org/2000/svg"
   xmlns:sodipodi="http://sodipodi.sourceforge.net/DTD/sodipodi-0.dtd"
   xmlns:inkscape="http://www.inkscape.org/namespaces/inkscape"
   inkscape:version="1.0 (4035a4f, 2020-05-01)"
   inkscape:export-ydpi="300"
   inkscape:export-xdpi="300"
   inkscape:export-filename="/Users/apple/Desktop/data/work/2 workspace/git/consultancy/img/svg/ai.png"
   height="70"
   width="70"
   sodipodi:docname="ai.svg"
   xml:space="preserve"
   viewBox="0 0 70 70"
   y="0px"
   x="0px"
   id="Capa_1"
   version="1.1"><metadata
   id="metadata916"><rdf:RDF><cc:Work
       rdf:about=""><dc:format>image/svg+xml</dc:format><dc:type
         rdf:resource="http://purl.org/dc/dcmitype/StillImage" /><dc:title></dc:title></cc:Work></rdf:RDF></metadata><defs
   id="defs914" /><sodipodi:namedview
   inkscape:current-layer="Capa_1"
   inkscape:window-maximized="0"
   inkscape:window-y="23"
   inkscape:window-x="0"
   inkscape:cy="34.999999"
   inkscape:cx="34.999999"
   inkscape:zoom="7.9428573"
   fit-margin-bottom="0"
   fit-margin-right="0"
   fit-margin-left="0"
   fit-margin-top="0"
   showgrid="false"
   id="namedview912"
   inkscape:window-height="764"
   inkscape:window-width="1439"
   inkscape:pageshadow="2"
   inkscape:pageopacity="0"
   guidetolerance="10"
   gridtolerance="10"
   objecttolerance="10"
   borderopacity="1"
   bordercolor="#666666"
   pagecolor="#ffffff" />





















<g
   transform="scale(0.14583333)"
   id="g957"><path
     style="fill:#ffb40e"
     d="m 72,240 c 0,26.512 21.488,48 48,48 h 40 40 40 40 l 48,72 h 24 l -24,-72 h 16 c 30.928,0 56,-25.072 56,-56 0,-22.76 -13.608,-42.312 -33.104,-51.072 -3.384,-16.872 -14.432,-30.872 -29.272,-38.552 C 329.928,138.392 321.264,136 312,136 c -2.488,0 -4.92,0.216 -7.32,0.528 C 299.088,125.056 290.496,115.36 280,108.288 268.56,100.576 254.84,96 240,96 c -14.84,0 -28.56,4.576 -40,12.288 -10.496,7.072 -19.088,16.768 -24.68,28.24 -2.4,-0.312 -4.832,-0.528 -7.32,-0.528 -9.28,0 -18.008,2.296 -25.712,6.288 C 124.304,151.608 112,170.352 112,192 c 0,0.24 0.032,0.472 0.04,0.712 C 89.328,196.512 72,216.208 72,240 Z"
     id="path833" /><g
     id="g841">
	<path
   style="fill:#06aed5"
   d="m 416,8 c -30.928,0 -56,25.072 -56,56 0,15.464 6.272,29.464 16.4,39.6 10.136,10.128 24.136,16.4 39.6,16.4 30.928,0 56,-25.072 56,-56 C 472,33.072 446.928,8 416,8 Z"
   id="path835" />
	<circle
   style="fill:#06aed5"
   cx="416"
   cy="416"
   r="56"
   id="circle837" />
	<polygon
   style="fill:#06aed5"
   points="56,8 8,8 8,136 104,136 104,104 104,56 56,56 "
   id="polygon839" />
</g><polygon
     style="fill:#086788"
     points="104,56 56,8 56,56 "
     id="polygon843" /><polygon
     style="fill:#06aed5"
     points="8,344 8,472 104,472 104,392 56,392 56,344 "
     id="polygon845" /><polygon
     style="fill:#086788"
     points="56,392 104,392 80,368 56,344 "
     id="polygon847" /><g
     id="g861">
	<circle
   style="fill:#dd3232"
   cx="240"
   cy="24"
   r="16"
   id="circle849" />
	<circle
   style="fill:#dd3232"
   cx="304"
   cy="40"
   r="16"
   id="circle851" />
	<circle
   style="fill:#dd3232"
   cx="176"
   cy="40"
   r="16"
   id="circle853" />
	<circle
   style="fill:#dd3232"
   cx="240"
   cy="456"
   r="16"
   id="circle855" />
	<circle
   style="fill:#dd3232"
   cx="304"
   cy="440"
   r="16"
   id="circle857" />
	<circle
   style="fill:#dd3232"
   cx="176"
   cy="440"
   r="16"
   id="circle859" />
</g><g
     id="g879">
	<path
   style="fill:#242a40"
   d="m 136,176 v 16 c 26.472,0 48,21.528 48,48 h 16 c 0,-35.288 -28.712,-64 -64,-64 z"
   id="path863" />
	<path
   style="fill:#242a40"
   d="m 304,256 h 16 c 0,-22.056 17.944,-40 40,-40 v -16 c -30.88,0 -56,25.128 -56,56 z"
   id="path865" />
	<path
   style="fill:#242a40"
   d="m 240,144 h -16 c 0,26.472 21.528,48 48,48 v -16 c -17.648,0 -32,-14.352 -32,-32 z"
   id="path867" />
	<path
   style="fill:#242a40"
   d="m 416,128 c 35.288,0 64,-28.712 64,-64 0,-35.288 -28.712,-64 -64,-64 -35.288,0 -64,28.712 -64,64 0,14.768 5.072,28.336 13.504,39.184 l -29.552,29.552 C 328.504,129.704 320.416,128 312,128 c -0.896,0 -1.816,0.024 -2.752,0.072 C 303.752,118.504 296.48,110.4 288,104.008 V 100.28 L 308.44,86.656 C 310.664,85.168 312,82.672 312,80 V 62.528 C 321.288,59.216 328,50.416 328,40 328,26.768 317.232,16 304,16 c -13.232,0 -24,10.768 -24,24 0,10.416 6.712,19.216 16,22.528 V 75.72 l -20.44,13.624 c -1.88,1.248 -3.064,3.24 -3.408,5.424 C 264.592,91.456 256.464,89.36 248,88.52 v -42 C 257.288,43.216 264,34.416 264,24 264,10.768 253.232,0 240,0 c -13.232,0 -24,10.768 -24,24 0,10.416 6.712,19.216 16,22.528 v 42 c -8.464,0.84 -16.592,2.928 -24.152,6.248 -0.344,-2.192 -1.536,-4.176 -3.408,-5.424 L 184,75.72 V 62.528 C 193.288,59.216 200,50.416 200,40 200,26.768 189.232,16 176,16 c -13.232,0 -24,10.768 -24,24 0,10.416 6.712,19.216 16,22.528 V 80 c 0,2.672 1.336,5.168 3.56,6.656 L 192,100.28 v 3.728 c -8.48,6.392 -15.752,14.496 -21.248,24.064 C 169.816,128.024 168.896,128 168,128 c -8.488,0 -16.584,1.672 -24,4.688 l -32,-32 V 56 c 0,-0.176 -0.088,-0.328 -0.104,-0.504 -0.048,-0.704 -0.184,-1.384 -0.408,-2.056 -0.088,-0.256 -0.152,-0.512 -0.272,-0.76 -0.392,-0.848 -0.88,-1.656 -1.568,-2.344 l -48,-48 C 60.96,1.648 60.152,1.16 59.296,0.768 59.064,0.664 58.84,0.6 58.608,0.52 57.904,0.272 57.184,0.128 56.44,0.088 56.288,0.08 56.152,0 56,0 H 8 C 3.584,0 0,3.576 0,8 v 128 c 0,4.424 3.584,8 8,8 h 96 c 4.416,0 8,-3.576 8,-8 v -12.688 l 17.568,17.568 c -14.08,10.616 -23.672,26.88 -25.312,45.416 C 80.576,193.168 64,214.8 64,240 c 0,30.872 25.12,56 56,56 h 20.688 L 80,356.688 61.656,338.344 c -0.696,-0.696 -1.504,-1.184 -2.36,-1.576 -0.224,-0.104 -0.456,-0.168 -0.688,-0.248 -0.704,-0.248 -1.424,-0.392 -2.168,-0.432 C 56.288,336.08 56.152,336 56,336 H 8 c -4.416,0 -8,3.576 -8,8 v 128 c 0,4.424 3.584,8 8,8 h 96 c 4.416,0 8,-3.576 8,-8 v -80 c 0,-0.176 -0.088,-0.328 -0.104,-0.504 -0.048,-0.704 -0.184,-1.384 -0.408,-2.056 -0.088,-0.256 -0.152,-0.512 -0.272,-0.76 -0.392,-0.848 -0.88,-1.656 -1.568,-2.344 L 91.312,368 l 72,-72 H 192 v 83.72 l -20.44,13.624 C 169.336,394.832 168,397.328 168,400 v 17.472 c -9.288,3.312 -16,12.112 -16,22.528 0,13.232 10.768,24 24,24 13.232,0 24,-10.768 24,-24 0,-10.416 -6.712,-19.216 -16,-22.528 V 404.28 l 20.44,-13.624 C 206.664,389.168 208,386.672 208,384 v -88 h 24 v 137.472 c -9.288,3.312 -16,12.112 -16,22.528 0,13.232 10.768,24 24,24 13.232,0 24,-10.768 24,-24 0,-10.416 -6.712,-19.216 -16,-22.528 V 296 h 24 v 88 c 0,2.672 1.336,5.168 3.56,6.656 L 296,404.28 v 13.192 c -9.288,3.312 -16,12.112 -16,22.528 0,13.232 10.768,24 24,24 13.232,0 24,-10.768 24,-24 0,-10.416 -6.712,-19.216 -16,-22.528 V 400 c 0,-2.672 -1.336,-5.168 -3.56,-6.656 L 288,379.72 v -65.296 l 33.344,50.016 c 1.488,2.224 3.984,3.56 6.656,3.56 h 24 c 2.568,0 4.984,-1.232 6.488,-3.32 1.504,-2.088 1.912,-4.776 1.104,-7.208 L 339.096,296 h 1.592 l 58.352,58.352 C 371.968,361.816 352,386.592 352,416 c 0,35.288 28.712,64 64,64 35.288,0 64,-28.712 64,-64 0,-34.112 -26.848,-61.992 -60.512,-63.824 L 360.96,293.648 C 388.032,286.184 408,261.408 408,232 408,208.216 394.704,186.432 373.816,175.408 370.04,161.32 361.6,149.312 350.416,140.896 l 26.4,-26.4 C 387.664,122.928 401.232,128 416,128 Z M 304,32 c 4.408,0 8,3.584 8,8 0,4.416 -3.592,8 -8,8 -4.408,0 -8,-3.584 -8,-8 0,-4.416 3.592,-8 8,-8 z m -128,0 c 4.408,0 8,3.584 8,8 0,4.416 -3.592,8 -8,8 -4.408,0 -8,-3.584 -8,-8 0,-4.416 3.592,-8 8,-8 z M 84.688,48 H 64 V 27.312 Z M 16,128 V 16 h 32 v 40 c 0,4.424 3.584,8 8,8 h 40 v 64 z M 84.688,384 H 64 V 363.312 Z M 16,464 V 352 h 32 v 40 c 0,4.424 3.584,8 8,8 h 40 v 64 z m 160,-16 c -4.408,0 -8,-3.584 -8,-8 0,-4.416 3.592,-8 8,-8 4.408,0 8,3.584 8,8 0,4.416 -3.592,8 -8,8 z m 64,16 c -4.408,0 -8,-3.584 -8,-8 0,-4.416 3.592,-8 8,-8 4.408,0 8,3.584 8,8 0,4.416 -3.592,8 -8,8 z m 64,-16 c -4.408,0 -8,-3.584 -8,-8 0,-4.416 3.592,-8 8,-8 4.408,0 8,3.584 8,8 0,4.416 -3.592,8 -8,8 z M 240,16 c 4.408,0 8,3.584 8,8 0,4.416 -3.592,8 -8,8 -4.408,0 -8,-3.584 -8,-8 0,-4.416 3.592,-8 8,-8 z m 224,400 c 0,26.472 -21.528,48 -48,48 -26.472,0 -48,-21.528 -48,-48 0,-26.472 21.528,-48 48,-48 26.472,0 48,21.528 48,48 z M 359.048,182.496 c 0.504,2.536 2.208,4.672 4.568,5.728 C 380.856,195.968 392,213.16 392,232 c 0,25.408 -19.848,46.208 -44.848,47.84 l -21.496,-21.496 -11.312,11.312 10.896,10.896 c -1.472,0.544 -2.784,1.464 -3.728,2.768 -1.504,2.088 -1.912,4.776 -1.104,7.208 L 340.904,352 H 332.28 L 288,285.576 V 256 h -16 v 24 h -24 v -32 h -16 v 32 h -24 v -24 h -16 v 24 h -12.688 l 2.344,-2.344 L 170.344,266.344 156.688,280 H 120 c -22.056,0 -40,-17.944 -40,-40 0,-19.592 14.024,-36.168 33.352,-39.4 3.856,-0.648 6.648,-4.696 6.648,-8.6 0,-16.472 8.344,-31.024 21.016,-39.672 l 29.328,29.328 11.312,-11.312 -24.944,-24.944 c 3.624,-0.88 7.392,-1.4 11.288,-1.4 2.136,0 4.224,0.192 6.288,0.464 3.44,0.472 6.72,-1.328 8.224,-4.424 2.56,-5.256 5.792,-9.992 9.496,-14.24 V 152 h 16 v -39.336 c 7.288,-4.232 15.4,-7.032 24,-8.104 V 120 h 16 v -15.44 c 8.6,1.064 16.712,3.872 24,8.104 V 152 h 16 v -26.2 c 3.696,4.24 6.928,8.984 9.496,14.24 1.504,3.096 4.84,4.888 8.224,4.424 2.048,-0.272 4.136,-0.464 6.272,-0.464 3.856,0 7.568,0.616 11.192,1.496 l -8.848,8.848 11.312,11.312 13.2,-13.2 c 10.12,6.88 17.664,17.416 20.192,30.04 z M 368,64 c 0,-26.472 21.528,-48 48,-48 26.472,0 48,21.528 48,48 0,26.472 -21.528,48 -48,48 -10.352,0 -19.92,-3.328 -27.768,-8.92 L 405.656,85.656 394.344,74.344 376.92,91.768 C 371.328,83.92 368,74.352 368,64 Z"
   id="path869" />
	<path
   style="fill:#242a40"
   d="m 416,48 c 4.408,0 8,3.584 8,8 0,4.416 -3.592,8 -8,8 -4.416,0 -8,3.576 -8,8 v 16 h 16 v -9.368 c 9.312,-3.304 16,-12.2 16,-22.632 0,-13.232 -10.768,-24 -24,-24 -13.232,0 -24,10.768 -24,24 h 16 c 0,-4.416 3.592,-8 8,-8 z"
   id="path871" />
	<path
   style="fill:#242a40"
   d="m 392,408 h 16 c 0,-4.416 3.592,-8 8,-8 4.408,0 8,3.584 8,8 0,4.416 -3.592,8 -8,8 -4.416,0 -8,3.576 -8,8 v 16 h 16 v -9.368 c 9.312,-3.304 16,-12.2 16,-22.632 0,-13.232 -10.768,-24 -24,-24 -13.232,0 -24,10.768 -24,24 z"
   id="path873" />
	<rect
   x="408"
   y="448"
   style="fill:#242a40"
   width="16"
   height="8"
   id="rect875" />
	<rect
   x="408"
   y="96"
   style="fill:#242a40"
   width="16"
   height="8"
   id="rect877" />
</g><g
     id="g881">
</g><g
     id="g883">
</g><g
     id="g885">
</g><g
     id="g887">
</g><g
     id="g889">
</g><g
     id="g891">
</g><g
     id="g893">
</g><g
     id="g895">
</g><g
     id="g897">
</g><g
     id="g899">
</g><g
     id="g901">
</g><g
     id="g903">
</g><g
     id="g905">
</g><g
     id="g907">
</g><g
     id="g909">
</g></g>
</svg>
