<?xml version="1.0" encoding="UTF-8" standalone="no"?>
<svg
   xmlns:dc="http://purl.org/dc/elements/1.1/"
   xmlns:cc="http://creativecommons.org/ns#"
   xmlns:rdf="http://www.w3.org/1999/02/22-rdf-syntax-ns#"
   xmlns:svg="http://www.w3.org/2000/svg"
   xmlns="http://www.w3.org/2000/svg"
   xmlns:sodipodi="http://sodipodi.sourceforge.net/DTD/sodipodi-0.dtd"
   xmlns:inkscape="http://www.inkscape.org/namespaces/inkscape"
   height="70"
   width="70"
   inkscape:version="1.0 (4035a4f, 2020-05-01)"
   inkscape:export-ydpi="300"
   inkscape:export-xdpi="300"
   inkscape:export-filename="/Users/apple/Desktop/data/work/2 workspace/git/consultancy/img/svg/bi.png"
   sodipodi:docname="bi.svg"
   xml:space="preserve"
   viewBox="0 0 70 70"
   y="0px"
   x="0px"
   id="Capa_1"
   version="1.1"><metadata
   id="metadata1543"><rdf:RDF><cc:Work
       rdf:about=""><dc:format>image/svg+xml</dc:format><dc:type
         rdf:resource="http://purl.org/dc/dcmitype/StillImage" /><dc:title></dc:title></cc:Work></rdf:RDF></metadata><defs
   id="defs1541" /><sodipodi:namedview
   fit-margin-bottom="0"
   fit-margin-right="0"
   fit-margin-left="0"
   fit-margin-top="0"
   inkscape:current-layer="g1506"
   inkscape:window-maximized="0"
   inkscape:window-y="23"
   inkscape:window-x="0"
   inkscape:cy="34.999999"
   inkscape:cx="34.999999"
   inkscape:zoom="10.585715"
   showgrid="false"
   id="namedview1539"
   inkscape:window-height="949"
   inkscape:window-width="1680"
   inkscape:pageshadow="2"
   inkscape:pageopacity="0"
   guidetolerance="10"
   gridtolerance="10"
   objecttolerance="10"
   borderopacity="1"
   bordercolor="#666666"
   pagecolor="#ffffff"
   inkscape:document-rotation="0" />






<g
   id="g1506">
	
	
	
	
	
<g
   transform="scale(0.14583333)"
   id="g1616"><path
     style="fill:#fff1d0"
     d="M 472,40 C 472,22.328 457.672,8 440,8 H 40 C 22.328,8 8,22.328 8,40 V 328 H 472 Z M 184,296 H 40 v -80 h 144 z m -0.344,-177.184 c -0.072,0.744 -0.192,1.472 -0.28,2.208 -0.184,1.496 -0.4,2.976 -0.68,4.44 -0.16,0.856 -0.352,1.688 -0.544,2.536 -0.304,1.32 -0.632,2.624 -1.008,3.912 -0.248,0.872 -0.504,1.736 -0.784,2.6 -0.408,1.232 -0.864,2.448 -1.336,3.648 -0.328,0.84 -0.64,1.688 -0.992,2.512 -0.544,1.24 -1.144,2.44 -1.752,3.64 -0.784,1.56 -1.632,3.08 -2.528,4.568 -0.528,0.88 -1.032,1.776 -1.6,2.632 -0.704,1.072 -1.472,2.096 -2.232,3.128 -0.464,0.624 -0.92,1.264 -1.4,1.872 -0.848,1.072 -1.736,2.112 -2.648,3.136 -0.432,0.48 -0.856,0.96 -1.304,1.432 -1.016,1.08 -2.048,2.136 -3.128,3.16 -0.304,0.288 -0.616,0.56 -0.92,0.84 -6.872,6.264 -14.936,11.232 -23.848,14.488 -0.072,0.024 -0.152,0.056 -0.224,0.08 -1.808,0.656 -3.656,1.24 -5.528,1.752 v 0 c -6.024,1.664 -12.36,2.6 -18.92,2.6 -39.768,0 -72,-32.232 -72,-72 0,-1.616 0.168,-3.192 0.28,-4.784 h -0.032 c 0.016,-0.208 0.056,-0.408 0.072,-0.616 0.144,-1.848 0.344,-3.672 0.624,-5.472 0.104,-0.688 0.232,-1.368 0.36,-2.048 0.296,-1.616 0.616,-3.224 1.024,-4.8 0.248,-0.992 0.56,-1.952 0.856,-2.928 0.384,-1.264 0.736,-2.544 1.192,-3.784 0.808,-2.232 1.704,-4.424 2.712,-6.544 0.112,-0.232 0.224,-0.464 0.336,-0.696 1.248,-2.536 2.608,-4.992 4.128,-7.352 0.04,-0.064 0.072,-0.12 0.112,-0.184 3.072,-4.752 6.736,-9.088 10.832,-12.984 0.48,-0.456 0.984,-0.896 1.48,-1.344 1.584,-1.424 3.232,-2.768 4.936,-4.048 0.56,-0.424 1.112,-0.856 1.688,-1.264 2.224,-1.568 4.52,-3.048 6.92,-4.368 0,0 0,0 0.008,0 v 0 c 2.384,-1.304 4.856,-2.44 7.392,-3.472 0.664,-0.272 1.344,-0.488 2.016,-0.736 1.88,-0.696 3.784,-1.328 5.728,-1.872 0.864,-0.24 1.736,-0.464 2.608,-0.672 1.904,-0.456 3.832,-0.816 5.784,-1.112 0.832,-0.128 1.656,-0.28 2.496,-0.384 C 106.328,40.208 109.136,40 112,40 c 39.768,0 72,32.232 72,72 0,2.304 -0.136,4.568 -0.344,6.816 z"
     id="path1476" /><path
     style="fill:#ffb40e"
     d="M 40.28,107.216 C 40.168,108.808 40,110.384 40,112 c 0,39.768 32.232,72 72,72 6.56,0 12.896,-0.936 18.928,-2.6 L 112,112 Z"
     id="path1478" /><rect
     x="224"
     y="376"
     style="fill:#086788"
     width="32"
     height="48"
     id="rect1480" /><g
     id="g1486">
	<path
   style="fill:#06aed5"
   d="m 152,424 c -17.672,0 -32,14.328 -32,32 v 16 h 240 v -16 c 0,-17.672 -14.328,-32 -32,-32 h -72 -32 z"
   id="path1482" />
	<path
   style="fill:#06aed5"
   d="m 40,376 h 184 32 184 c 17.672,0 32,-14.328 32,-32 V 328 H 8 v 16 c 0,17.672 14.328,32 32,32 z"
   id="path1484" />
</g><g
     id="g1492">
	<rect
   x="40"
   y="216"
   style="opacity:1;fill:#dd3232;fill-opacity:1"
   width="144"
   height="80"
   id="rect1488" />
	<path
   style="fill:#dd3232"
   d="m 77.52,48.784 c 0,0.008 0,0.008 0,0 -2.408,1.32 -4.696,2.8 -6.928,4.368 -0.576,0.408 -1.128,0.84 -1.688,1.264 -1.704,1.28 -3.352,2.632 -4.936,4.048 -0.496,0.448 -0.992,0.888 -1.472,1.344 -4.096,3.896 -7.76,8.232 -10.84,12.992 -0.04,0.056 -0.072,0.12 -0.112,0.184 -1.52,2.352 -2.888,4.816 -4.128,7.352 -0.112,0.232 -0.224,0.464 -0.336,0.696 -1.008,2.128 -1.904,4.312 -2.712,6.544 -0.448,1.24 -0.808,2.512 -1.192,3.784 -0.288,0.976 -0.6,1.936 -0.856,2.928 -0.4,1.576 -0.728,3.184 -1.024,4.8 -0.128,0.68 -0.256,1.36 -0.36,2.048 -0.272,1.8 -0.488,3.624 -0.624,5.472 -0.016,0.208 -0.056,0.408 -0.072,0.616 h 0.032 L 112,112 Z"
   id="path1490" />
</g><path
     style="fill:#06aed5"
     d="m 112,40 c -2.864,0 -5.672,0.208 -8.44,0.536 -0.84,0.096 -1.664,0.256 -2.496,0.384 -1.96,0.296 -3.888,0.664 -5.784,1.112 -0.88,0.208 -1.744,0.432 -2.608,0.672 -1.944,0.544 -3.856,1.176 -5.728,1.872 -0.672,0.248 -1.352,0.472 -2.016,0.736 -2.536,1.032 -5.016,2.168 -7.392,3.472 v 0 L 112,112 l 18.928,69.4 v 0 c 1.872,-0.512 3.72,-1.096 5.528,-1.752 0.072,-0.024 0.152,-0.056 0.224,-0.08 8.904,-3.248 16.976,-8.224 23.848,-14.488 0.304,-0.28 0.616,-0.552 0.92,-0.84 1.08,-1.016 2.112,-2.072 3.128,-3.16 0.44,-0.472 0.872,-0.952 1.304,-1.432 0.904,-1.024 1.8,-2.064 2.648,-3.136 0.48,-0.608 0.936,-1.248 1.4,-1.872 0.76,-1.032 1.528,-2.056 2.232,-3.128 0.56,-0.856 1.072,-1.752 1.6,-2.632 0.896,-1.496 1.736,-3.008 2.528,-4.568 0.608,-1.2 1.216,-2.4 1.752,-3.64 0.36,-0.824 0.664,-1.672 0.992,-2.512 0.472,-1.208 0.928,-2.416 1.336,-3.648 0.28,-0.856 0.536,-1.728 0.784,-2.6 0.376,-1.288 0.704,-2.592 1.008,-3.912 0.192,-0.84 0.384,-1.68 0.544,-2.536 0.28,-1.464 0.488,-2.952 0.68,-4.44 0.096,-0.736 0.208,-1.464 0.28,-2.208 0.2,-2.248 0.336,-4.512 0.336,-6.816 0,-39.768 -32.232,-72 -72,-72 z"
     id="path1494" /><g
     id="g1570"><path
       id="path1496"
       d="m 112,192 c 7.232,0 14.208,-1.048 20.872,-2.856 0.056,-0.016 0.104,-0.008 0.16,-0.024 0.112,-0.032 0.208,-0.072 0.32,-0.104 1.824,-0.504 3.616,-1.08 5.392,-1.712 0.464,-0.168 0.928,-0.336 1.384,-0.504 1.672,-0.632 3.328,-1.304 4.944,-2.04 0.504,-0.232 1,-0.48 1.504,-0.728 1.584,-0.76 3.152,-1.536 4.672,-2.4 0.32,-0.184 0.624,-0.392 0.944,-0.576 3.352,-1.96 6.56,-4.128 9.576,-6.536 0.112,-0.088 0.232,-0.168 0.344,-0.256 1.176,-0.944 2.288,-1.96 3.408,-2.976 0.624,-0.56 1.256,-1.112 1.864,-1.688 1.04,-1 2.032,-2.04 3.016,-3.096 0.6,-0.648 1.2,-1.288 1.776,-1.952 0.952,-1.088 1.88,-2.2 2.776,-3.344 0.52,-0.664 1.008,-1.336 1.504,-2.016 0.888,-1.208 1.768,-2.424 2.592,-3.68 0.36,-0.552 0.688,-1.136 1.032,-1.696 2.688,-4.352 4.952,-8.976 6.776,-13.824 0.352,-0.944 0.72,-1.888 1.04,-2.848 0.4,-1.192 0.744,-2.408 1.088,-3.624 0.328,-1.176 0.64,-2.352 0.912,-3.544 0.256,-1.112 0.496,-2.216 0.712,-3.344 0.272,-1.464 0.488,-2.944 0.68,-4.432 0.12,-0.92 0.264,-1.824 0.344,-2.752 0.224,-2.456 0.368,-4.936 0.368,-7.448 0,-44.112 -35.888,-80 -80,-80 -3.144,0 -6.224,0.232 -9.272,0.584 -0.832,0.096 -1.648,0.256 -2.472,0.376 -2.264,0.336 -4.504,0.752 -6.704,1.272 -0.928,0.216 -1.84,0.456 -2.76,0.712 -2.128,0.584 -4.216,1.264 -6.272,2.024 -0.864,0.32 -1.744,0.608 -2.6,0.952 -2.704,1.104 -5.352,2.312 -7.896,3.688 -0.112,0.064 -0.232,0.104 -0.344,0.16 -0.008,0 -0.008,0.008 -0.008,0.008 -0.456,0.248 -0.856,0.568 -1.304,0.824 -2.08,1.192 -4.104,2.456 -6.064,3.824 -1.104,0.768 -2.152,1.584 -3.208,2.4 -1.256,0.976 -2.488,1.992 -3.688,3.04 -1.128,0.992 -2.248,1.976 -3.32,3.016 -1.064,1.04 -2.064,2.152 -3.064,3.256 -1.576,1.728 -3.08,3.504 -4.496,5.36 -1.096,1.432 -2.192,2.872 -3.192,4.376 -0.696,1.056 -1.32,2.152 -1.968,3.24 -0.968,1.624 -1.888,3.272 -2.744,4.96 -0.456,0.912 -0.912,1.824 -1.336,2.76 -1.088,2.376 -2.056,4.8 -2.912,7.288 -0.104,0.304 -0.232,0.6 -0.336,0.904 -2.048,6.208 -3.312,12.752 -3.768,19.52 0,0.048 -0.016,0.096 -0.016,0.144 0,0.024 0.008,0.04 0.008,0.064 C 32.152,108.496 32,110.224 32,112 c 0,44.112 35.888,80 80,80 z M 52.728,87.96 c 0.464,-1.168 1.016,-2.288 1.552,-3.416 0.384,-0.808 0.752,-1.64 1.168,-2.432 0.384,-0.728 0.808,-1.416 1.216,-2.128 0.664,-1.136 1.32,-2.28 2.048,-3.376 0.28,-0.416 0.584,-0.816 0.872,-1.232 0.912,-1.304 1.856,-2.592 2.856,-3.824 0.216,-0.264 0.448,-0.512 0.664,-0.776 1.104,-1.304 2.248,-2.576 3.448,-3.792 0.232,-0.232 0.48,-0.456 0.712,-0.688 1.2,-1.176 2.44,-2.312 3.728,-3.384 0.344,-0.288 0.712,-0.56 1.064,-0.848 C 72.88,61.4 73.744,60.784 74.6,60.16 L 81.832,73.408 98,103.04 49.24,99.784 c 0.712,-3.736 1.784,-7.352 3.12,-10.84 0.128,-0.32 0.232,-0.656 0.368,-0.984 z m -4.536,27.8 57.592,3.84 15.192,55.696 C 118.032,175.712 115.056,176 112,176 77.984,176 50.152,149.296 48.192,115.76 Z M 176,112 c 0,2.936 -0.264,5.824 -0.656,8.672 -0.088,0.632 -0.184,1.264 -0.288,1.888 -0.976,5.768 -2.704,11.312 -5.136,16.496 -0.16,0.344 -0.328,0.688 -0.496,1.024 -2.584,5.256 -5.872,10.136 -9.768,14.488 -0.232,0.256 -0.456,0.512 -0.688,0.76 -4.008,4.336 -8.608,8.136 -13.72,11.248 -0.216,0.136 -0.432,0.264 -0.656,0.4 -2.608,1.552 -5.328,2.944 -8.176,4.12 l -16.688,-61.2 c -0.168,-0.6 -0.4,-1.176 -0.696,-1.728 L 88.656,52.472 c 0.768,-0.304 1.544,-0.584 2.328,-0.856 0.896,-0.312 1.792,-0.648 2.704,-0.92 1,-0.296 2.024,-0.536 3.04,-0.784 0.984,-0.24 1.968,-0.512 2.96,-0.704 1.12,-0.216 2.264,-0.36 3.4,-0.52 0.896,-0.128 1.792,-0.296 2.696,-0.384 C 107.824,48.12 109.896,48 112,48 c 35.288,0 64,28.712 64,64 z"
       style="fill:#242a40" /><path
       id="path1498"
       d="M 440,0 H 40 C 17.944,0 0,17.944 0,40 v 288 16 c 0,22.056 17.944,40 40,40 h 176 v 32 h -64 c -22.056,0 -40,17.944 -40,40 v 16 c 0,4.416 3.584,8 8,8 h 240 c 4.416,0 8,-3.584 8,-8 v -16 c 0,-22.056 -17.944,-40 -40,-40 h -64 v -32 h 176 c 22.056,0 40,-17.944 40,-40 V 328 40 C 480,17.944 462.056,0 440,0 Z M 40,16 h 400 c 13.232,0 24,10.768 24,24 V 320 H 16 V 40 C 16,26.768 26.768,16 40,16 Z m 312,440 v 8 H 128 v -8 c 0,-13.232 10.768,-24 24,-24 h 72 32 72 c 13.232,0 24,10.768 24,24 z M 248,416 h -16 v -32 h 16 z m 216,-72 c 0,13.232 -10.768,24 -24,24 H 256 224 40 C 26.768,368 16,357.232 16,344 v -8 h 448 z"
       style="fill:#242a40" /><path
       id="path1500"
       d="M 216,304 H 448 V 288 H 224 V 32 h -16 v 264 c 0,4.416 3.584,8 8,8 z"
       style="fill:#242a40" /><path
       id="path1502"
       d="m 40,304 h 144 c 4.416,0 8,-3.584 8,-8 v -80 c 0,-4.416 -3.584,-8 -8,-8 H 40 c -4.416,0 -8,3.584 -8,8 v 80 c 0,4.416 3.584,8 8,8 z m 8,-80 h 128 v 64 H 48 Z"
       style="fill:#242a40" /><path
       style="fill:none;stroke:#242a40;stroke-width:10;stroke-linecap:butt;stroke-linejoin:round;stroke-miterlimit:4;stroke-dasharray:none;stroke-opacity:1"
       d="m 239.5961,196.13373 27.69897,15.9269 0.69247,-1.38494 25.62155,-22.85166 41.54846,-11.07958 36.70113,-30.46887 27.69897,-11.07959 24.92908,-69.9399 v 0"
       id="path892" /><rect
       style="opacity:1;fill:#32dd7e;fill-opacity:1;stroke:#242a40;stroke-width:3;stroke-linejoin:round;stroke-miterlimit:4;stroke-dasharray:none;stroke-opacity:1"
       id="rect1170"
       width="14.54196"
       height="51.93557"
       x="237.51868"
       y="224.36166" /><rect
       y="215.40695"
       x="282.7868"
       height="60.72551"
       width="14.212419"
       id="rect1170-9"
       style="opacity:1;fill:#32dd7e;fill-opacity:1;stroke:#242a40;stroke-width:3.20698;stroke-linejoin:round;stroke-miterlimit:4;stroke-dasharray:none;stroke-opacity:1" /><rect
       style="opacity:1;fill:#32dd7e;fill-opacity:1;stroke:#242a40;stroke-width:3.80712;stroke-linejoin:round;stroke-miterlimit:4;stroke-dasharray:none;stroke-opacity:1"
       id="rect1170-9-1"
       width="14.212419"
       height="85.57962"
       x="328.12897"
       y="190.31406" /><rect
       y="169.03992"
       x="373.4249"
       height="106.66118"
       width="13.827272"
       id="rect1170-9-1-7"
       style="opacity:1;fill:#32dd7e;fill-opacity:1;stroke:#242a40;stroke-width:4.19227;stroke-linejoin:round;stroke-miterlimit:4;stroke-dasharray:none;stroke-opacity:1" /><rect
       style="opacity:1;fill:#32dd7e;fill-opacity:1;stroke:#242a40;stroke-width:5.05184;stroke-linejoin:round;stroke-miterlimit:4;stroke-dasharray:none;stroke-opacity:1"
       id="rect1170-9-1-7-5"
       width="13.827272"
       height="154.88425"
       x="418.95804"
       y="120.38707" /></g></g></g>
<g
   id="g1508">
</g>
<g
   id="g1510">
</g>
<g
   id="g1512">
</g>
<g
   id="g1514">
</g>
<g
   id="g1516">
</g>
<g
   id="g1518">
</g>
<g
   id="g1520">
</g>
<g
   id="g1522">
</g>
<g
   id="g1524">
</g>
<g
   id="g1526">
</g>
<g
   id="g1528">
</g>
<g
   id="g1530">
</g>
<g
   id="g1532">
</g>
<g
   id="g1534">
</g>
<g
   id="g1536">
</g>
</svg>
