<?xml version="1.0" encoding="UTF-8" standalone="no"?>
<svg
   xmlns:dc="http://purl.org/dc/elements/1.1/"
   xmlns:cc="http://creativecommons.org/ns#"
   xmlns:rdf="http://www.w3.org/1999/02/22-rdf-syntax-ns#"
   xmlns:svg="http://www.w3.org/2000/svg"
   xmlns="http://www.w3.org/2000/svg"
   xmlns:sodipodi="http://sodipodi.sourceforge.net/DTD/sodipodi-0.dtd"
   xmlns:inkscape="http://www.inkscape.org/namespaces/inkscape"
   version="1.1"
   id="Capa_1"
   x="0px"
   y="0px"
   viewBox="0 0 70 70"
   xml:space="preserve"
   sodipodi:docname="dd.svg"
   width="70"
   height="70"
   inkscape:export-filename="/Users/apple/Desktop/data/work/2 workspace/git/consultancy/img/svg/dd.png"
   inkscape:export-xdpi="300"
   inkscape:export-ydpi="300"
   inkscape:version="1.0 (4035a4f, 2020-05-01)"><metadata
   id="metadata1573"><rdf:RDF><cc:Work
       rdf:about=""><dc:format>image/svg+xml</dc:format><dc:type
         rdf:resource="http://purl.org/dc/dcmitype/StillImage" /><dc:title /></cc:Work></rdf:RDF></metadata><defs
   id="defs1571" /><sodipodi:namedview
   inkscape:document-rotation="0"
   pagecolor="#ffffff"
   bordercolor="#666666"
   borderopacity="1"
   objecttolerance="10"
   gridtolerance="10"
   guidetolerance="10"
   inkscape:pageopacity="0"
   inkscape:pageshadow="2"
   inkscape:window-width="1001"
   inkscape:window-height="758"
   id="namedview1569"
   showgrid="false"
   fit-margin-top="0"
   fit-margin-left="0"
   fit-margin-right="0"
   fit-margin-bottom="0"
   inkscape:zoom="0.7545884"
   inkscape:cx="249.28711"
   inkscape:cy="280.52558"
   inkscape:window-x="0"
   inkscape:window-y="23"
   inkscape:window-maximized="0"
   inkscape:current-layer="Capa_1" />





<g
   transform="scale(0.14583333)"
   id="g2226"><path
     id="path1510"
     d="m 8,128 v 8 c 0,17.672 14.328,32 32,32 h 64 32 64 c 9.616,0 18.136,-4.328 24,-11.04 V 128 Z"
     style="fill:#06aed5" /><rect
     id="rect1512"
     height="40"
     width="32"
     style="fill:#086788"
     y="168"
     x="104" /><g
     id="g1520">
	<path
   id="path1514"
   d="m 80,208 c -17.672,0 -32,14.328 -32,32 h 144 c 0,-17.672 -14.328,-32 -32,-32 h -24 -32 z"
   style="fill:#06aed5" />
	<path
   id="path1516"
   d="m 226.344,95.768 c -0.104,0.168 -0.192,0.352 -0.288,0.528 -0.512,0.92 -0.92,1.888 -1.248,2.904 -0.096,0.312 -0.208,0.608 -0.288,0.928 -0.304,1.24 -0.52,2.528 -0.52,3.872 v 16 h 128 v -16 c 0,-8.84 -7.16,-16 -16,-16 h -96 c -2.928,0 -5.64,0.848 -8,2.216 -2.32,1.352 -4.256,3.272 -5.656,5.552 z"
   style="fill:#06aed5" />
	<path
   id="path1518"
   d="m 306.448,297.352 c -0.128,-0.456 -0.232,-0.912 -0.352,-1.368 -0.528,-2.016 -0.936,-4.08 -1.264,-6.168 -0.104,-0.648 -0.216,-1.296 -0.296,-1.952 C 304.208,285.28 304,282.664 304,280 c 0,-2.056 0.12,-4.08 0.304,-6.088 0.064,-0.648 0.168,-1.272 0.248,-1.912 H 224 v 24 c 0,8.84 7.16,16 16,16 h 72.632 v 0 c -2.64,-4.56 -4.728,-9.464 -6.184,-14.648 z"
   style="fill:#06aed5" />
</g><path
     id="path1522"
     d="m 304.56,271.944 c 0.168,-1.328 0.352,-2.648 0.6,-3.944 0.144,-0.768 0.32,-1.536 0.496,-2.296 0.264,-1.16 0.56,-2.304 0.888,-3.44 0.232,-0.792 0.464,-1.584 0.728,-2.368 0.352,-1.064 0.744,-2.104 1.144,-3.136 0.312,-0.8 0.608,-1.6 0.952,-2.384 0.424,-0.968 0.904,-1.912 1.376,-2.856 1.744,-3.48 3.776,-6.784 6.096,-9.872 0.344,-0.456 0.672,-0.92 1.024,-1.368 0.816,-1.024 1.672,-2.008 2.544,-2.976 0.336,-0.368 0.664,-0.744 1.008,-1.104 0.952,-1.008 1.928,-1.984 2.936,-2.92 0.264,-0.24 0.528,-0.48 0.792,-0.72 1.136,-1.024 2.288,-2.016 3.496,-2.96 l 0.008,-0.008 c 6.816,-5.312 14.728,-9.28 23.344,-11.496 v 0 V 120 H 224 v -16 c 0,-1.344 0.216,-2.632 0.528,-3.88 0.08,-0.312 0.192,-0.616 0.288,-0.928 0.32,-1.016 0.736,-1.984 1.248,-2.904 0.096,-0.176 0.184,-0.352 0.288,-0.528 1.4,-2.28 3.336,-4.192 5.656,-5.544 V 40 c 0,-17.672 -14.328,-32 -32,-32 H 40 C 22.328,8 8,22.328 8,40 v 88 H 224 V 156.96 272 h 80.552 c 0.008,-0.016 0.008,-0.032 0.008,-0.056 z"
     style="fill:#fff1d0" /><g
     id="g1528">
	<path
   id="path1524"
   d="m 432,280 c 0,-35.344 -28.656,-64 -64,-64 -5.536,0 -10.88,0.776 -16,2.096 v 0 c -8.616,2.224 -16.536,6.184 -23.344,11.496 l -0.008,0.008 c -1.2,0.936 -2.36,1.936 -3.496,2.96 -0.264,0.24 -0.528,0.472 -0.792,0.72 -1.008,0.944 -1.992,1.92 -2.936,2.92 -0.344,0.36 -0.672,0.736 -1.008,1.104 -0.872,0.968 -1.736,1.952 -2.544,2.976 -0.352,0.448 -0.68,0.912 -1.024,1.368 -2.32,3.088 -4.36,6.384 -6.096,9.872 -0.472,0.944 -0.952,1.88 -1.376,2.856 -0.344,0.784 -0.64,1.584 -0.952,2.384 -0.408,1.032 -0.8,2.08 -1.144,3.136 -0.256,0.784 -0.496,1.568 -0.728,2.368 -0.328,1.136 -0.624,2.28 -0.888,3.44 -0.176,0.76 -0.352,1.52 -0.496,2.296 -0.248,1.304 -0.432,2.624 -0.6,3.944 0,0.016 -0.008,0.032 -0.008,0.056 -0.08,0.64 -0.184,1.272 -0.248,1.912 C 304.12,275.92 304,277.944 304,280 c 0,2.664 0.208,5.28 0.528,7.856 0.08,0.656 0.2,1.304 0.296,1.952 0.328,2.088 0.736,4.152 1.264,6.168 0.12,0.456 0.224,0.92 0.352,1.368 1.472,5.168 3.544,10.088 6.184,14.648 v 0 c 11.072,19.112 31.696,32 55.368,32 C 403.344,344 432,315.344 432,280 Z"
   style="fill:#dd3232" />
	<path
   id="path1526"
   d="m 392,344 h -24 -24 c -44.184,0 -80,35.816 -80,80 v 48 h 208 v -48 c 0,-44.184 -35.816,-80 -80,-80 z"
   style="fill:#dd3232" />
</g><g
     id="g1536">
	<path
   id="path1530"
   d="m 40,176 h 56 v 24 H 80 c -22.056,0 -40,17.944 -40,40 0,4.416 3.584,8 8,8 h 144 c 4.416,0 8,-3.584 8,-8 0,-22.056 -17.944,-40 -40,-40 h -16 v -24 h 56 c 5.56,0 10.992,-1.208 16,-3.432 V 296 c 0,13.232 10.768,24 24,24 h 68.176 c 4.68,6.968 10.576,13.024 17.336,17.992 C 285.84,346.512 256,381.824 256,424 v 48 c 0,4.416 3.584,8 8,8 h 208 c 4.416,0 8,-3.584 8,-8 V 424 C 480,381.824 450.16,346.512 410.488,337.992 428.344,324.872 440,303.8 440,280 c 0,-39.696 -32.304,-72 -72,-72 -2.704,0 -5.368,0.176 -8,0.472 V 104 C 360,90.768 349.232,80 336,80 H 240 V 40 C 240,17.944 222.056,0 200,0 H 40 C 17.944,0 0,17.944 0,40 v 96 c 0,22.056 17.944,40 40,40 z m 142.632,56 H 57.368 c 3.304,-9.312 12.2,-16 22.632,-16 h 24 32 24 c 10.432,0 19.328,6.688 22.632,16 z M 128,200 h -16 v -24 h 16 z m 72,-40 H 136 104 40 C 26.768,160 16,149.232 16,136 h 200 v 17.728 C 211.568,157.792 205.984,160 200,160 Z M 300.152,304 H 240 c -4.408,0 -8,-3.592 -8,-8 v -16 h 64 c 0,2.24 0.128,4.472 0.336,6.704 0.088,0.968 0.24,1.904 0.368,2.856 0.16,1.192 0.328,2.384 0.544,3.568 0.224,1.2 0.496,2.376 0.776,3.552 0.216,0.888 0.44,1.768 0.68,2.648 0.36,1.296 0.752,2.568 1.184,3.832 0.104,0.28 0.168,0.568 0.264,0.84 z M 392,352 c 39.696,0 72,32.304 72,72 v 40 H 272 v -40 c 0,-39.696 32.304,-72 72,-72 z m 32,-72 c 0,30.88 -25.12,56 -56,56 -20.744,0 -38.84,-11.36 -48.52,-28.16 -2.352,-4.088 -4.152,-8.44 -5.4,-12.928 -0.104,-0.368 -0.192,-0.744 -0.288,-1.112 -0.472,-1.824 -0.832,-3.672 -1.112,-5.536 -0.072,-0.496 -0.168,-0.992 -0.232,-1.496 C 312.176,284.52 312,282.264 312,280 c 0,-2.888 0.288,-5.72 0.712,-8.504 0.072,-0.496 0.136,-0.992 0.224,-1.48 0.488,-2.672 1.152,-5.28 2.008,-7.824 0.144,-0.44 0.32,-0.864 0.48,-1.304 1.896,-5.192 4.528,-10.04 7.816,-14.408 0.288,-0.392 0.568,-0.784 0.872,-1.168 1.632,-2.064 3.416,-4.008 5.328,-5.832 0.328,-0.312 0.68,-0.616 1.016,-0.92 6.552,-5.928 14.528,-10.4 23.536,-12.728 C 358.48,224.68 363.16,224 368,224 c 30.88,0 56,25.12 56,56 z m -85.168,-65.768 c -0.296,0.136 -0.584,0.288 -0.88,0.424 -2.216,1.024 -4.368,2.16 -6.456,3.392 -1.008,0.592 -2.024,1.184 -3,1.824 -0.712,0.472 -1.408,0.976 -2.104,1.472 -1.096,0.776 -2.176,1.576 -3.224,2.416 -0.576,0.464 -1.152,0.928 -1.712,1.408 -1.208,1.024 -2.376,2.096 -3.512,3.192 -0.368,0.352 -0.744,0.696 -1.104,1.056 -1.528,1.544 -2.992,3.136 -4.368,4.808 0,0.008 -0.008,0.008 -0.008,0.016 -1.336,1.624 -2.584,3.312 -3.776,5.04 -0.328,0.48 -0.64,0.976 -0.96,1.456 -0.856,1.304 -1.664,2.64 -2.432,4 -0.328,0.584 -0.656,1.16 -0.968,1.76 -0.76,1.44 -1.464,2.912 -2.128,4.408 -0.208,0.472 -0.448,0.936 -0.648,1.416 -0.808,1.936 -1.536,3.912 -2.176,5.928 -0.176,0.552 -0.312,1.128 -0.472,1.688 -0.392,1.344 -0.768,2.696 -1.08,4.064 H 232 V 156.968 128 h 112 v 84.176 c -0.24,0.088 -0.472,0.192 -0.712,0.28 -1.504,0.56 -3,1.128 -4.456,1.776 z M 336,96 c 4.408,0 8,3.592 8,8 v 8 H 232 v -8 c 0,-0.96 0.24,-1.856 0.552,-2.712 0.096,-0.248 0.192,-0.496 0.312,-0.736 0.304,-0.624 0.704,-1.192 1.16,-1.712 0.336,-0.376 0.72,-0.712 1.128,-1.024 C 236.504,96.736 238.144,96 240,96 Z M 40,16 h 160 c 13.232,0 24,10.768 24,24 v 46.2 c -0.056,0.048 -0.096,0.12 -0.152,0.168 -1.088,1 -2.072,2.088 -2.96,3.272 -0.096,0.128 -0.216,0.24 -0.312,0.376 -0.912,1.264 -1.696,2.608 -2.352,4.032 -0.032,0.072 -0.08,0.144 -0.12,0.216 -0.64,1.432 -1.136,2.928 -1.488,4.48 -0.016,0.088 -0.056,0.16 -0.08,0.248 C 216.2,100.616 216,102.28 216,104 v 16 H 16 V 40 C 16,26.768 26.768,16 40,16 Z"
   style="fill:#242a40" />
	
		<rect
   id="rect1532"
   height="15.999"
   width="51.222"
   style="fill:#242a40"
   transform="matrix(-0.7809,0.6246,-0.6246,-0.7809,203.8045,56.5234)"
   y="56.001999"
   x="66.378998" />
	
		<rect
   id="rect1534"
   height="15.999"
   width="51.222"
   style="fill:#242a40"
   transform="matrix(-0.7809,0.6246,-0.6246,-0.7809,308.5355,35.8024)"
   y="64.008003"
   x="122.378" />
</g></g>
<g
   id="g1538">
</g>
<g
   id="g1540">
</g>
<g
   id="g1542">
</g>
<g
   id="g1544">
</g>
<g
   id="g1546">
</g>
<g
   id="g1548">
</g>
<g
   id="g1550">
</g>
<g
   id="g1552">
</g>
<g
   id="g1554">
</g>
<g
   id="g1556">
</g>
<g
   id="g1558">
</g>
<g
   id="g1560">
</g>
<g
   id="g1562">
</g>
<g
   id="g1564">
</g>
<g
   id="g1566">
</g>
</svg>
