<?xml version="1.0" encoding="UTF-8" standalone="no"?>
<svg
   xmlns:dc="http://purl.org/dc/elements/1.1/"
   xmlns:cc="http://creativecommons.org/ns#"
   xmlns:rdf="http://www.w3.org/1999/02/22-rdf-syntax-ns#"
   xmlns:svg="http://www.w3.org/2000/svg"
   xmlns="http://www.w3.org/2000/svg"
   xmlns:sodipodi="http://sodipodi.sourceforge.net/DTD/sodipodi-0.dtd"
   xmlns:inkscape="http://www.inkscape.org/namespaces/inkscape"
   inkscape:export-ydpi="300"
   inkscape:export-xdpi="300"
   inkscape:export-filename="/Users/apple/Desktop/data/work/2 workspace/git/consultancy/img/svg/dt.png"
   inkscape:version="1.0 (4035a4f, 2020-05-01)"
   height="480"
   width="480"
   sodipodi:docname="dt.svg"
   xml:space="preserve"
   viewBox="0 0 480 480"
   y="0px"
   x="0px"
   id="Capa_1"
   version="1.1"><metadata
   id="metadata947"><rdf:RDF><cc:Work
       rdf:about=""><dc:format>image/svg+xml</dc:format><dc:type
         rdf:resource="http://purl.org/dc/dcmitype/StillImage" /><dc:title></dc:title></cc:Work></rdf:RDF></metadata><defs
   id="defs945" /><sodipodi:namedview
   inkscape:current-layer="Capa_1"
   inkscape:window-maximized="0"
   inkscape:window-y="23"
   inkscape:window-x="0"
   inkscape:cy="240"
   inkscape:cx="240"
   inkscape:zoom="0.5192053"
   fit-margin-bottom="0"
   fit-margin-right="0"
   fit-margin-left="0"
   fit-margin-top="0"
   showgrid="false"
   id="namedview943"
   inkscape:window-height="480"
   inkscape:window-width="870"
   inkscape:pageshadow="2"
   inkscape:pageopacity="0"
   guidetolerance="10"
   gridtolerance="10"
   objecttolerance="10"
   borderopacity="1"
   bordercolor="#666666"
   pagecolor="#ffffff" />
<path
   id="path894"
   d="m 328,242.352 c -2.28,-0.68 -4.632,-1.168 -7.016,-1.56 -0.504,-0.08 -1,-0.16 -1.512,-0.232 -2.448,-0.336 -4.936,-0.56 -7.472,-0.56 -4.296,0 -8.456,0.528 -12.48,1.44 -5.664,1.288 -10.984,3.448 -15.848,6.312 -0.048,0.024 -0.088,0.056 -0.136,0.08 C 267.072,257.584 256,275.48 256,296 c 0,2.72 0.264,5.384 0.64,8 0.072,0.512 0.144,1.016 0.232,1.52 0.44,2.568 1.016,5.08 1.792,7.52 0.008,0.04 0.024,0.072 0.04,0.104 0.8,2.488 1.808,4.88 2.936,7.208 0.136,0.28 0.264,0.56 0.4,0.832 1.2,2.376 2.536,4.656 4.048,6.824 10.12,14.496 26.896,24 45.92,24 9.28,0 18.008,-2.296 25.712,-6.288 2.496,-1.296 4.872,-2.784 7.128,-4.424 0.144,-0.104 0.288,-0.216 0.44,-0.328 4.448,-3.296 8.376,-7.232 11.68,-11.68 0.112,-0.144 0.216,-0.288 0.328,-0.44 1.64,-2.256 3.128,-4.632 4.424,-7.128 2.824,-5.448 4.744,-11.408 5.648,-17.712 0.376,-2.616 0.64,-5.28 0.64,-8 C 368,270.632 351.128,249.232 328,242.352 Z"
   style="fill:#ffb40e" />
<path
   id="path896"
   d="m 356.96,329.28 c -3.296,4.448 -7.232,8.384 -11.68,11.68 -0.144,0.112 -0.288,0.216 -0.44,0.328 -2.256,1.64 -4.632,3.128 -7.128,4.424 v 0 L 380,388 c 6.624,6.624 17.376,6.624 24,0 6.624,-6.624 6.624,-17.376 0,-24 l -42.288,-42.288 v 0 c -1.296,2.496 -2.784,4.872 -4.424,7.128 -0.112,0.152 -0.216,0.296 -0.328,0.44 z"
   style="fill:#dd3232" />
<path
   id="path898"
   d="m 399.92,129.512 c 0.016,-0.504 0.08,-1 0.08,-1.512 0,-26.512 -21.488,-48 -48,-48 -4.336,0 -8.52,0.624 -12.512,1.704 C 326.512,39.048 286.896,8 240,8 182.56,8 136,54.56 136,112 c 0,9.64 1.416,18.928 3.872,27.792 C 126.944,132.336 111.992,128 96,128 47.4,128 8,167.4 8,216 c 0,48.6 39.4,88 88,88 h 33.128 c -0.256,-0.992 -0.448,-2.016 -0.632,-3.032 0.184,1.024 0.376,2.04 0.632,3.032 3.568,13.776 15.976,24 30.872,24 h 106.08 c -1.512,-2.168 -2.856,-4.448 -4.048,-6.824 -0.136,-0.272 -0.264,-0.552 -0.4,-0.832 -1.128,-2.328 -2.136,-4.712 -2.936,-7.208 -0.008,-0.04 -0.024,-0.072 -0.04,-0.104 -0.776,-2.432 -1.352,-4.952 -1.792,-7.52 -0.088,-0.504 -0.168,-1.008 -0.24,-1.52 -0.008,-0.048 -0.008,-0.096 -0.008,-0.144 C 256.248,301.28 256,298.672 256,296 H 152 V 168 h 176 v 74.352 0 c 23.128,6.888 40,28.288 40,53.648 0,2.72 -0.264,5.384 -0.64,8 H 384 c 48.6,0 88,-39.4 88,-88 0,-43.152 -31.088,-78.984 -72.08,-86.488 z"
   style="fill:#06aed5" />
<path
   id="path900"
   d="m 283.536,247.832 c 0.048,-0.024 0.088,-0.056 0.136,-0.08 4.864,-2.864 10.184,-5.016 15.848,-6.312 4.024,-0.912 8.184,-1.44 12.48,-1.44 2.536,0 5.024,0.224 7.472,0.552 0.504,0.064 1.008,0.152 1.512,0.232 2.384,0.392 4.736,0.888 7.016,1.56 v 0 V 168 H 152 v 128 h 104 c 0,-20.52 11.072,-38.416 27.536,-48.168 z"
   style="fill:#fff1d0" />
<g
   id="g910">
	<path
   id="path902"
   d="M 407.784,123.048 C 405.064,92.152 376.728,68.24 344.808,72.488 328.456,28.832 287.2,0 240,0 178.24,0 128,50.24 128,112 c 0,4.592 0.304,9.224 0.896,13.864 C 118.376,122 107.224,120 96,120 43.064,120 0,163.064 0,216 c 0,52.936 43.064,96 96,96 h 27.392 c 6.192,14.104 20.248,24 36.608,24 h 102.12 c 11.744,14.608 29.72,24 49.88,24 v 72 c 0,4.424 3.576,8 8,8 h 52.688 l -26.344,26.344 11.312,11.312 40,-40 c 3.128,-3.128 3.128,-8.184 0,-11.312 l -40,-40 -11.312,11.312 L 372.688,424 H 328 v -66.104 c 2.728,-0.704 5.4,-1.552 7.984,-2.6 l 38.36,38.36 c 4.864,4.864 11.264,7.304 17.656,7.304 6.392,0 12.792,-2.44 17.656,-7.304 9.736,-9.736 9.736,-25.576 0,-35.312 l -38.36,-38.36 c 1.048,-2.576 1.896,-5.248 2.6,-7.984 H 384 c 52.936,0 96,-43.064 96,-96 0,-44.136 -30,-82.224 -72.216,-92.952 z M 252.672,320 H 160 c -10.432,0 -19.328,-6.688 -22.632,-16 H 152 248.496 c 0.048,0.384 0.16,0.752 0.216,1.128 0,0.008 0,0.016 0,0.016 0,0.008 0,0.008 0.008,0.016 0.016,0.088 0.04,0.168 0.048,0.256 0.28,1.864 0.624,3.712 1.064,5.52 0.184,0.76 0.376,1.512 0.584,2.272 0.536,1.92 1.16,3.792 1.872,5.64 0.144,0.376 0.232,0.776 0.384,1.152 z M 320,232.504 c -0.176,-0.024 -0.352,-0.016 -0.528,-0.032 C 317.016,232.184 314.528,232 312,232 c -2.128,0 -4.224,0.112 -6.296,0.32 -0.696,0.072 -1.376,0.2 -2.064,0.288 -0.344,0.048 -0.688,0.096 -1.04,0.144 l -32.536,-37.96 c -1.544,-1.816 -3.968,-2.56 -6.2,-2.8 -2.384,0.04 -4.624,1.144 -6.12,3 l -27.952,34.952 -26.216,-13.112 c -3.472,-1.736 -7.656,-0.744 -9.976,2.36 l -24,32 12.8,9.592 19.992,-26.656 26.032,13.016 c 3.376,1.688 7.472,0.792 9.832,-2.16 l 25.96,-32.464 21.536,25.128 c -0.184,0.08 -0.36,0.192 -0.544,0.28 -0.896,0.416 -1.792,0.848 -2.672,1.304 -0.704,0.368 -1.4,0.752 -2.088,1.144 -0.288,0.168 -0.584,0.328 -0.872,0.496 -0.744,0.44 -1.472,0.904 -2.2,1.368 -0.752,0.488 -1.488,0.984 -2.216,1.504 -0.128,0.088 -0.256,0.168 -0.384,0.256 -0.128,0.096 -0.264,0.176 -0.392,0.264 -0.632,0.456 -1.232,0.952 -1.84,1.432 -0.704,0.552 -1.4,1.112 -2.072,1.688 -0.832,0.712 -1.632,1.456 -2.424,2.208 -0.64,0.608 -1.28,1.208 -1.896,1.848 -0.48,0.496 -0.952,1 -1.416,1.504 -0.032,0.04 -0.072,0.072 -0.112,0.112 l 0.008,0.008 c -0.248,0.272 -0.48,0.56 -0.728,0.84 -0.568,0.648 -1.152,1.288 -1.696,1.96 -0.728,0.896 -1.4,1.84 -2.08,2.776 -0.48,0.664 -0.984,1.312 -1.432,1.992 -0.704,1.056 -1.336,2.152 -1.976,3.248 -0.36,0.624 -0.76,1.216 -1.096,1.856 -0.864,1.6 -1.648,3.24 -2.376,4.92 -0.088,0.208 -0.192,0.408 -0.28,0.616 -0.752,1.784 -1.424,3.616 -2.008,5.48 -0.216,0.68 -0.368,1.376 -0.56,2.064 -0.352,1.264 -0.712,2.528 -0.984,3.816 -0.176,0.832 -0.288,1.68 -0.432,2.52 -0.16,0.944 -0.368,1.872 -0.488,2.832 H 160 V 176 h 160 z m -47.432,90.8 c -1.28,-1.84 -2.392,-3.76 -3.392,-5.728 -0.184,-0.36 -0.352,-0.728 -0.528,-1.096 -0.936,-1.968 -1.768,-3.976 -2.424,-6.04 -0.008,-0.032 -0.024,-0.056 -0.032,-0.088 -0.648,-2.056 -1.104,-4.16 -1.464,-6.288 -0.064,-0.384 -0.12,-0.776 -0.176,-1.168 0,-0.008 0,-0.016 0,-0.024 -0.04,-0.288 -0.056,-0.52 -0.096,-0.792 C 264.208,300.064 264,298.048 264,296 c 0,-12.424 4.784,-23.72 12.552,-32.256 3.232,-3.552 6.928,-6.552 10.96,-8.96 0.16,-0.096 0.32,-0.2 0.488,-0.296 2.008,-1.168 4.088,-2.192 6.248,-3.056 0.072,-0.024 0.144,-0.048 0.208,-0.08 2.208,-0.864 4.48,-1.584 6.824,-2.112 3.456,-0.784 7.032,-1.24 10.72,-1.24 2.104,0 4.208,0.184 6.296,0.464 0.44,0.056 0.88,0.128 1.312,0.2 2,0.328 4,0.744 5.96,1.32 19.88,5.872 34.432,24.264 34.432,46.016 0,1.24 -0.096,2.448 -0.184,3.664 -0.088,1.008 -0.2,2.048 -0.368,3.2 0,0.008 0,0.016 0,0.024 -0.784,5.416 -2.448,10.544 -4.888,15.216 -1.064,2.048 -2.288,3.992 -3.616,5.84 -0.208,0.288 -0.424,0.568 -0.64,0.856 -2.704,3.6 -5.896,6.792 -9.496,9.496 -0.288,0.216 -0.568,0.432 -0.856,0.64 -1.856,1.328 -3.792,2.552 -5.84,3.616 C 327.488,342.016 319.976,344 312,344 c -16.328,0 -30.752,-8.208 -39.432,-20.696 z m 90.568,11.144 35.208,35.208 c 3.504,3.504 3.504,9.184 0,12.688 -3.504,3.504 -9.184,3.504 -12.688,0 l -35.208,-35.208 c 0.264,-0.2 0.488,-0.448 0.752,-0.648 2,-1.56 3.936,-3.192 5.736,-4.976 0.192,-0.192 0.392,-0.384 0.584,-0.584 1.776,-1.8 3.416,-3.736 4.976,-5.736 0.192,-0.256 0.44,-0.48 0.64,-0.744 z M 384,296 h -8 c 0,-26.8 -16.576,-49.768 -40,-59.288 V 168 c 0,-4.424 -3.576,-8 -8,-8 H 152 c -4.424,0 -8,3.576 -8,8 v 120 h -16 c -4.424,0 -8,3.576 -8,8 H 96 c -44.112,0 -80,-35.888 -80,-80 0,-44.112 35.888,-80 80,-80 13.92,0 27.712,3.704 39.864,10.72 2.816,1.632 6.32,1.392 8.896,-0.6 2.568,-1.992 3.68,-5.336 2.816,-8.464 C 145.2,129.088 144,120.456 144,112 c 0,-52.936 43.064,-96 96,-96 42.552,0 79.456,27.336 91.832,68.032 1.264,4.136 5.608,6.52 9.736,5.4 26.296,-7.136 50.448,13.064 50.416,38.864 -0.008,0.112 -0.048,0.864 -0.056,0.976 -0.12,3.952 2.672,7.4 6.56,8.112 37.96,6.944 65.512,40.008 65.512,78.616 0,44.112 -35.888,80 -80,80 z"
   style="fill:#242a40" />
	<path
   id="path904"
   d="M 248,452.688 V 352 h -16 v 100.688 l -34.344,-34.344 -11.312,11.312 48,48 c 1.56,1.56 3.608,2.344 5.656,2.344 2.048,0 4.096,-0.784 5.656,-2.344 l 48,-48 -11.312,-11.312 z"
   style="fill:#242a40" />
	<path
   id="path906"
   d="m 320,312 c 2.048,0 4.096,-0.784 5.656,-2.344 l 24,-24 L 338.344,274.344 320,292.688 309.656,282.344 c -2.704,-2.704 -6.936,-3.128 -10.096,-1 l -24,16 8.872,13.312 18.544,-12.36 11.36,11.36 c 1.568,1.56 3.616,2.344 5.664,2.344 z"
   style="fill:#242a40" />
	<path
   id="path908"
   d="m 152,424 h -44.688 l 26.344,-26.344 -11.312,-11.312 -40,40 c -3.128,3.128 -3.128,8.184 0,11.312 l 40,40 11.312,-11.312 L 107.312,440 H 160 c 4.424,0 8,-3.576 8,-8 v -80 h -16 z"
   style="fill:#242a40" />
</g>
<g
   id="g912">
</g>
<g
   id="g914">
</g>
<g
   id="g916">
</g>
<g
   id="g918">
</g>
<g
   id="g920">
</g>
<g
   id="g922">
</g>
<g
   id="g924">
</g>
<g
   id="g926">
</g>
<g
   id="g928">
</g>
<g
   id="g930">
</g>
<g
   id="g932">
</g>
<g
   id="g934">
</g>
<g
   id="g936">
</g>
<g
   id="g938">
</g>
<g
   id="g940">
</g>
</svg>
