<?xml version="1.0" encoding="UTF-8" standalone="no"?>
<svg
   xmlns:dc="http://purl.org/dc/elements/1.1/"
   xmlns:cc="http://creativecommons.org/ns#"
   xmlns:rdf="http://www.w3.org/1999/02/22-rdf-syntax-ns#"
   xmlns:svg="http://www.w3.org/2000/svg"
   xmlns="http://www.w3.org/2000/svg"
   xmlns:sodipodi="http://sodipodi.sourceforge.net/DTD/sodipodi-0.dtd"
   xmlns:inkscape="http://www.inkscape.org/namespaces/inkscape"
   height="70.000267"
   width="70"
   version="1.1"
   id="Capa_1"
   x="0px"
   y="0px"
   viewBox="0 0 70 70.000267"
   xml:space="preserve"
   sodipodi:docname="te.svg"
   inkscape:export-filename="/Users/apple/Desktop/data/work/2 workspace/git/consultancy/img/svg/te.png"
   inkscape:export-xdpi="300"
   inkscape:export-ydpi="300"
   inkscape:version="1.0 (4035a4f, 2020-05-01)"><metadata
   id="metadata2235"><rdf:RDF><cc:Work
       rdf:about=""><dc:format>image/svg+xml</dc:format><dc:type
         rdf:resource="http://purl.org/dc/dcmitype/StillImage" /></cc:Work></rdf:RDF></metadata><defs
   id="defs2233" /><sodipodi:namedview
   inkscape:document-rotation="0"
   pagecolor="#ffffff"
   bordercolor="#666666"
   borderopacity="1"
   objecttolerance="10"
   gridtolerance="10"
   guidetolerance="10"
   inkscape:pageopacity="0"
   inkscape:pageshadow="2"
   inkscape:window-width="1288"
   inkscape:window-height="805"
   id="namedview2231"
   showgrid="false"
   inkscape:zoom="0.95872443"
   inkscape:cx="255.99905"
   inkscape:cy="256"
   inkscape:window-x="0"
   inkscape:window-y="23"
   inkscape:window-maximized="0"
   inkscape:current-layer="Capa_1" />








<g
   transform="matrix(0.13671927,0,0,0.13671927,-1.301099e-4,0)"
   id="g3472"><path
     id="path2136"
     d="m 471.999,256 c 13.232,0 24,-10.768 24,-24 V 16 h -280 v 144 h -8 v 26.728 l 3.72,-1.592 55.072,-47.2 c 3.168,-2.72 7.904,-2.544 10.864,0.416 l 24,24 c 3.128,3.128 3.128,8.184 0,11.312 l -56,56 c -0.608,0.608 -1.304,1.12 -2.08,1.504 l -35.576,17.776 V 264 h 16 v -8 z m -128,-72 h -24 v -16 h 24 z m 0,-32 h -32 v -16 h 32 z m -96,-72 V 48 c 0,-4.424 3.584,-8 8,-8 h 80 c 4.416,0 8,3.576 8,8 v 8 h 24 v -8 c 0,-4.424 3.584,-8 8,-8 h 80 c 4.416,0 8,3.576 8,8 v 32 c 0,4.424 -3.584,8 -8,8 h -32 v 24 h 32 c 4.416,0 8,3.576 8,8 v 32 c 0,4.424 -3.584,8 -8,8 h -32 v 24 h 32 c 4.416,0 8,3.576 8,8 v 32 c 0,4.424 -3.584,8 -8,8 h -80 c -4.416,0 -8,-3.576 -8,-8 v -32 c 0,-4.424 3.584,-8 8,-8 h 32 v -24 h -32 c -4.416,0 -8,-3.576 -8,-8 v -32 c 0,-4.424 3.584,-8 8,-8 h 32 V 88 h -32 c -4.416,0 -8,-3.576 -8,-8 v -8 h -24 v 8 c 0,4.424 -3.584,8 -8,8 h -80 c -4.416,0 -8,-3.576 -8,-8 z m 8,40 v -16 h 88 v 16 z m 40,80 h 48 v 16 h -48 z"
     style="fill:#f5efe6" /><path
     id="path2138"
     d="m 31.999,64 h 8 c 2.52,0 4.888,1.184 6.4,3.2 l 9.6,12.8 v -8 c 0,-4.424 3.584,-8 8,-8 h 56 c 4.408,0 8,-3.584 8,-8 V 24 c 0,-4.416 -3.592,-8 -8,-8 h -88 c -4.408,0 -8,3.584 -8,8 v 32 c 0,4.416 3.592,8 8,8 z m 8,-32 h 72 v 16 h -72 z"
     style="fill:#ebaa39" /><circle
     id="circle2140"
     r="32"
     cy="144"
     cx="127.999"
     style="fill:#ff6978;fill-opacity:1" /><g
     id="g2146">
	<rect
   id="rect2142"
   height="16"
   width="64"
   style="fill:#ebaa39"
   y="56"
   x="383.99899" />
	<circle
   id="circle2144"
   r="32"
   cy="400"
   cx="303.99899"
   style="fill:#ebd2ff;fill-opacity:1" />
</g><g
     id="g2152">
	<path
   id="path2148"
   d="m 271.583,154.896 -50.376,43.168 c -0.616,0.528 -1.312,0.96 -2.056,1.28 l -56,24 c -0.992,0.44 -2.072,0.656 -3.152,0.656 H 67.631 l -50.592,57.816 19.632,58.896 17.168,-8.584 -13.272,-33.168 c -1.064,-2.672 -0.616,-5.72 1.184,-7.968 l 32,-40 c 2.12,-2.648 5.696,-3.672 8.896,-2.544 3.208,1.128 5.352,4.152 5.352,7.552 v 216 c 0,13.232 10.768,24 24,24 h 8 V 368 c 0,-4.424 3.584,-8 8,-8 4.416,0 8,3.576 8,8 v 128 h 32 V 256 c 0,-3.032 1.712,-5.8 4.424,-7.152 L 235.263,217.424 284.687,168 Z M 143.999,256 h -8 v 64 h -16 v -64 h -8 v -16 h 32 z"
   style="fill:#ff6978;fill-opacity:1" />
	<path
   id="path2150"
   d="m 71.431,333.032 c 0.368,0.92 0.552,1.864 0.568,2.816 v -57.04 l -14.84,18.552 z"
   style="fill:#5e8da7" />
</g><g
     id="g2158">
	<rect
   id="rect2154"
   height="16"
   width="64"
   style="fill:#ebaa39"
   y="56"
   x="263.99899" />
	<rect
   id="rect2156"
   height="16"
   width="64"
   style="fill:#ebaa39"
   y="128"
   x="383.99899" />
</g><rect
     id="rect2160"
     height="16"
     width="64"
     style="fill:#c13d3d"
     y="200"
     x="383.99899" /><g
     id="g2172">
	<circle
   id="circle2162"
   r="32"
   cy="400"
   cx="383.99899"
   style="fill:#c68b87;fill-opacity:1" />
	<circle
   id="circle2164"
   r="32"
   cy="400"
   cx="463.99899"
   style="fill:#ccf49f;fill-opacity:1" />
	<path
   id="path2166"
   d="m 303.999,448 c -17.648,0 -32,14.352 -32,32 v 32 h 64 v -32 c 0,-17.648 -14.352,-32 -32,-32 z"
   style="fill:#ebd2ff;fill-opacity:1" />
	<path
   id="path2168"
   d="m 383.999,448 c -17.648,0 -32,14.352 -32,32 v 32 h 64 v -32 c 0,-17.648 -14.352,-32 -32,-32 z"
   style="fill:#c68b87;fill-opacity:1" />
	<path
   id="path2170"
   d="m 463.999,448 c -17.648,0 -32,14.352 -32,32 v 32 h 64 v -32 c 0,-17.648 -14.352,-32 -32,-32 z"
   style="fill:#ccf49f;fill-opacity:1" />
</g><g
     id="g2198">
	<path
   id="path2174"
   d="m 79.999,144 c 0,26.472 21.528,48 48,48 26.472,0 48,-21.528 48,-48 0,-26.472 -21.528,-48 -48,-48 -26.472,0 -48,21.528 -48,48 z m 80,0 c 0,17.648 -14.352,32 -32,32 -17.648,0 -32,-14.352 -32,-32 0,-17.648 14.352,-32 32,-32 17.648,0 32,14.352 32,32 z"
   style="fill:#1f2933" />
	<path
   id="path2176"
   d="m 245.655,229.656 56,-56 c 3.128,-3.128 3.128,-8.184 0,-11.312 l -24,-24 c -2.96,-2.96 -7.696,-3.136 -10.864,-0.416 l -55.072,47.2 -3.72,1.6 -49.64,21.272 h -94.36 c -2.312,0 -4.504,0.992 -6.016,2.736 l -56,64 c -1.872,2.136 -2.472,5.104 -1.568,7.8 l 24,72 c 0.736,2.192 2.384,3.968 4.528,4.856 2.144,0.872 4.552,0.8 6.64,-0.232 l 32,-16 c 2.736,-1.368 4.36,-4.112 4.416,-7.008 V 472 c 0,22.056 17.944,40 40,40 h 64 c 4.416,0 8,-3.576 8,-8 V 260.944 l 24,-12 35.576,-17.792 c 0.776,-0.376 1.472,-0.888 2.08,-1.496 z M 71.999,335.848 c -0.016,-0.944 -0.2,-1.888 -0.568,-2.816 L 57.159,297.36 71.999,278.808 Z m 100.424,-87 c -2.712,1.352 -4.424,4.12 -4.424,7.152 v 240 h -32 V 368 c 0,-4.424 -3.584,-8 -8,-8 -4.416,0 -8,3.576 -8,8 v 128 h -8 c -13.232,0 -24,-10.768 -24,-24 V 256 c 0,-3.4 -2.144,-6.424 -5.352,-7.544 -3.2,-1.128 -6.776,-0.104 -8.896,2.544 l -32,40 c -1.8,2.248 -2.248,5.296 -1.184,7.968 L 53.839,332.136 36.671,340.72 17.039,281.816 67.631,224 h 92.368 c 1.08,0 2.152,-0.216 3.152,-0.648 l 56,-24 c 0.744,-0.32 1.44,-0.752 2.056,-1.28 l 50.376,-43.168 13.104,13.096 -49.424,49.424 z"
   style="fill:#1f2933" />
	<polygon
   id="polygon2178"
   points="135.999,256 143.999,256 143.999,240 111.999,240 111.999,256 119.999,256 119.999,320 135.999,320 "
   style="fill:#1f2933" />
	<path
   id="path2180"
   d="m 511.999,400 c 0,-26.472 -21.528,-48 -48,-48 -16.688,0 -31.392,8.568 -40,21.52 -8.608,-12.96 -23.312,-21.52 -40,-21.52 -16.688,0 -31.392,8.568 -40,21.52 -8.608,-12.96 -23.312,-21.52 -40,-21.52 -26.472,0 -48,21.528 -48,48 0,16.688 8.568,31.392 21.52,40 -12.952,8.608 -21.52,23.312 -21.52,40 v 32 h 8 8 v -32 c 0,-17.648 14.352,-32 32,-32 17.648,0 32,14.352 32,32 v 32 h 8 8 v -32 c 0,-17.648 14.352,-32 32,-32 17.648,0 32,14.352 32,32 v 32 h 8 8 v -32 c 0,-17.648 14.352,-32 32,-32 17.648,0 32,14.352 32,32 v 32 h 8 8 v -32 c 0,-16.688 -8.568,-31.392 -21.52,-40 12.952,-8.608 21.52,-23.312 21.52,-40 z m -88,26.48 c 3.56,5.36 8.16,9.96 13.52,13.52 -5.36,3.56 -9.96,8.16 -13.52,13.52 -3.56,-5.36 -8.16,-9.968 -13.52,-13.52 5.36,-3.56 9.96,-8.16 13.52,-13.52 z m -40,-58.48 c 17.648,0 32,14.352 32,32 0,17.648 -14.352,32 -32,32 -17.648,0 -32,-14.352 -32,-32 0,-17.648 14.352,-32 32,-32 z m -40,58.48 c 3.56,5.36 8.16,9.96 13.52,13.52 -5.36,3.56 -9.96,8.16 -13.52,13.52 -3.56,-5.36 -8.16,-9.968 -13.52,-13.52 5.36,-3.56 9.96,-8.16 13.52,-13.52 z m -72,-26.48 c 0,-17.648 14.352,-32 32,-32 17.648,0 32,14.352 32,32 0,17.648 -14.352,32 -32,32 -17.648,0 -32,-14.352 -32,-32 z m 192,32 c -17.648,0 -32,-14.352 -32,-32 0,-17.648 14.352,-32 32,-32 17.648,0 32,14.352 32,32 0,17.648 -14.352,32 -32,32 z"
   style="fill:#1f2933" />
	<path
   id="path2182"
   d="m 503.999,0 h -296 c -4.416,0 -8,3.576 -8,8 v 152 h 8 8 V 16 h 280 v 216 c 0,13.232 -10.768,24 -24,24 h -248 v 8 8 h 248 c 22.056,0 40,-17.944 40,-40 V 8 c 0,-4.424 -3.584,-8 -8,-8 z"
   style="fill:#1f2933" />
	<path
   id="path2184"
   d="m 335.999,88 c 4.416,0 8,-3.576 8,-8 v -8 h 24 v 8 c 0,4.424 3.584,8 8,8 h 32 v 24 h -32 c -4.416,0 -8,3.576 -8,8 v 32 c 0,4.424 3.584,8 8,8 h 32 v 24 h -32 c -4.416,0 -8,3.576 -8,8 v 32 c 0,4.424 3.584,8 8,8 h 80 c 4.416,0 8,-3.576 8,-8 v -32 c 0,-4.424 -3.584,-8 -8,-8 h -32 v -24 h 32 c 4.416,0 8,-3.576 8,-8 v -32 c 0,-4.424 -3.584,-8 -8,-8 h -32 V 88 h 32 c 4.416,0 8,-3.576 8,-8 V 48 c 0,-4.424 -3.584,-8 -8,-8 h -80 c -4.416,0 -8,3.576 -8,8 v 8 h -24 v -8 c 0,-4.424 -3.584,-8 -8,-8 h -80 c -4.416,0 -8,3.576 -8,8 v 32 c 0,4.424 3.584,8 8,8 z m 112,112 v 16 h -64 v -16 z m 0,-72 v 16 h -64 v -16 z m -64,-72 h 64 v 16 h -64 z m -120,0 h 64 v 16 h -64 z"
   style="fill:#1f2933" />
	<rect
   id="rect2186"
   height="16"
   width="88"
   style="fill:#1f2933"
   y="104"
   x="255.99899" />
	<rect
   id="rect2188"
   height="16"
   width="32"
   style="fill:#1f2933"
   y="136"
   x="311.99899" />
	<rect
   id="rect2190"
   height="16"
   width="24"
   style="fill:#1f2933"
   y="168"
   x="319.99899" />
	<rect
   id="rect2192"
   height="16"
   width="48"
   style="fill:#1f2933"
   y="200"
   x="295.99899" />
	<path
   id="path2194"
   d="m 31.999,80 h 4 l 21.6,28.8 c 1.544,2.048 3.928,3.2 6.4,3.2 0.84,0 1.696,-0.136 2.528,-0.416 3.272,-1.088 5.472,-4.136 5.472,-7.584 V 80 h 48 c 13.232,0 24,-10.768 24,-24 V 24 c 0,-13.232 -10.768,-24 -24,-24 h -88 c -13.232,0 -24,10.768 -24,24 v 32 c 0,13.232 10.768,24 24,24 z m -8,-56 c 0,-4.416 3.592,-8 8,-8 h 88 c 4.408,0 8,3.584 8,8 v 32 c 0,4.416 -3.592,8 -8,8 h -56 c -4.416,0 -8,3.576 -8,8 v 8 l -9.6,-12.8 C 44.887,65.184 42.519,64 39.999,64 h -8 c -4.408,0 -8,-3.584 -8,-8 z"
   style="fill:#1f2933" />
	<rect
   id="rect2196"
   height="16"
   width="72"
   style="fill:#1f2933"
   y="32"
   x="39.999001" />
</g></g>
<g
   transform="translate(-9.516596e-4)"
   id="g2200">
</g>
<g
   transform="translate(-9.516596e-4)"
   id="g2202">
</g>
<g
   transform="translate(-9.516596e-4)"
   id="g2204">
</g>
<g
   transform="translate(-9.516596e-4)"
   id="g2206">
</g>
<g
   transform="translate(-9.516596e-4)"
   id="g2208">
</g>
<g
   transform="translate(-9.516596e-4)"
   id="g2210">
</g>
<g
   transform="translate(-9.516596e-4)"
   id="g2212">
</g>
<g
   transform="translate(-9.516596e-4)"
   id="g2214">
</g>
<g
   transform="translate(-9.516596e-4)"
   id="g2216">
</g>
<g
   transform="translate(-9.516596e-4)"
   id="g2218">
</g>
<g
   transform="translate(-9.516596e-4)"
   id="g2220">
</g>
<g
   transform="translate(-9.516596e-4)"
   id="g2222">
</g>
<g
   transform="translate(-9.516596e-4)"
   id="g2224">
</g>
<g
   transform="translate(-9.516596e-4)"
   id="g2226">
</g>
<g
   transform="translate(-9.516596e-4)"
   id="g2228">
</g>
</svg>
