<?xml version="1.0" encoding="UTF-8" standalone="no"?>
<svg
   xmlns:dc="http://purl.org/dc/elements/1.1/"
   xmlns:cc="http://creativecommons.org/ns#"
   xmlns:rdf="http://www.w3.org/1999/02/22-rdf-syntax-ns#"
   xmlns:svg="http://www.w3.org/2000/svg"
   xmlns="http://www.w3.org/2000/svg"
   xmlns:sodipodi="http://sodipodi.sourceforge.net/DTD/sodipodi-0.dtd"
   xmlns:inkscape="http://www.inkscape.org/namespaces/inkscape"
   inkscape:version="1.0 (4035a4f, 2020-05-01)"
   inkscape:export-ydpi="300"
   inkscape:export-xdpi="300"
   inkscape:export-filename="/Users/apple/Desktop/data/work/2 workspace/git/consultancy/img/svg/te.png"
   sodipodi:docname="te.svg"
   xml:space="preserve"
   style="enable-background:new 0 0 512 512;"
   viewBox="0 0 512 512"
   y="0px"
   x="0px"
   id="Capa_1"
   version="1.1"><metadata
   id="metadata2235"><rdf:RDF><cc:Work
       rdf:about=""><dc:format>image/svg+xml</dc:format><dc:type
         rdf:resource="http://purl.org/dc/dcmitype/StillImage" /></cc:Work></rdf:RDF></metadata><defs
   id="defs2233" /><sodipodi:namedview
   inkscape:current-layer="Capa_1"
   inkscape:window-maximized="0"
   inkscape:window-y="23"
   inkscape:window-x="0"
   inkscape:cy="256"
   inkscape:cx="256"
   inkscape:zoom="1.1731555"
   showgrid="false"
   id="namedview2231"
   inkscape:window-height="805"
   inkscape:window-width="1288"
   inkscape:pageshadow="2"
   inkscape:pageopacity="0"
   guidetolerance="10"
   gridtolerance="10"
   objecttolerance="10"
   borderopacity="1"
   bordercolor="#666666"
   pagecolor="#ffffff" />
<path
   id="path2136"
   d="M471.999,256c13.232,0,24-10.768,24-24V16h-280v144h-8v26.728l3.72-1.592l55.072-47.2  c3.168-2.72,7.904-2.544,10.864,0.416l24,24c3.128,3.128,3.128,8.184,0,11.312l-56,56c-0.608,0.608-1.304,1.12-2.08,1.504  l-35.576,17.776V264h16v-8H471.999z M343.999,184h-24v-16h24V184z M343.999,152h-32v-16h32V152z M247.999,80V48c0-4.424,3.584-8,8-8  h80c4.416,0,8,3.576,8,8v8h24v-8c0-4.424,3.584-8,8-8h80c4.416,0,8,3.576,8,8v32c0,4.424-3.584,8-8,8h-32v24h32c4.416,0,8,3.576,8,8  v32c0,4.424-3.584,8-8,8h-32v24h32c4.416,0,8,3.576,8,8v32c0,4.424-3.584,8-8,8h-80c-4.416,0-8-3.576-8-8v-32c0-4.424,3.584-8,8-8  h32v-24h-32c-4.416,0-8-3.576-8-8v-32c0-4.424,3.584-8,8-8h32V88h-32c-4.416,0-8-3.576-8-8v-8h-24v8c0,4.424-3.584,8-8,8h-80  C251.583,88,247.999,84.424,247.999,80z M255.999,120v-16h88v16H255.999z M295.999,200h48v16h-48V200z"
   style="fill:#F5EFE6;" />
<path
   id="path2138"
   d="M31.999,64h8c2.52,0,4.888,1.184,6.4,3.2l9.6,12.8v-8c0-4.424,3.584-8,8-8h56c4.408,0,8-3.584,8-8V24  c0-4.416-3.592-8-8-8h-88c-4.408,0-8,3.584-8,8v32C23.999,60.416,27.591,64,31.999,64z M39.999,32h72v16h-72V32z"
   style="fill:#EBAA39;" />
<circle
   id="circle2140"
   r="32"
   cy="144"
   cx="127.999"
   style="fill:#ff6978;fill-opacity:1" />
<g
   id="g2146">
	<rect
   id="rect2142"
   height="16"
   width="64"
   style="fill:#EBAA39;"
   y="56"
   x="383.999" />
	<circle
   id="circle2144"
   r="32"
   cy="400"
   cx="303.999"
   style="fill:#ebd2ff;fill-opacity:1" />
</g>
<g
   id="g2152">
	<path
   id="path2148"
   d="M271.583,154.896l-50.376,43.168c-0.616,0.528-1.312,0.96-2.056,1.28l-56,24   c-0.992,0.44-2.072,0.656-3.152,0.656H67.631l-50.592,57.816l19.632,58.896l17.168-8.584L40.567,298.96   c-1.064-2.672-0.616-5.72,1.184-7.968l32-40c2.12-2.648,5.696-3.672,8.896-2.544c3.208,1.128,5.352,4.152,5.352,7.552v216   c0,13.232,10.768,24,24,24h8V368c0-4.424,3.584-8,8-8s8,3.576,8,8v128h32V256c0-3.032,1.712-5.8,4.424-7.152l62.84-31.424   L284.687,168L271.583,154.896z M143.999,256h-8v64h-16v-64h-8v-16h32V256z"
   style="fill:#ff6978;fill-opacity:1" />
	<path
   id="path2150"
   d="M71.431,333.032c0.368,0.92,0.552,1.864,0.568,2.816v-57.04l-14.84,18.552L71.431,333.032z"
   style="fill:#5E8DA7;" />
</g>
<g
   id="g2158">
	<rect
   id="rect2154"
   height="16"
   width="64"
   style="fill:#EBAA39;"
   y="56"
   x="263.999" />
	<rect
   id="rect2156"
   height="16"
   width="64"
   style="fill:#EBAA39;"
   y="128"
   x="383.999" />
</g>
<rect
   id="rect2160"
   height="16"
   width="64"
   style="fill:#C13D3D;"
   y="200"
   x="383.999" />
<g
   id="g2172">
	<circle
   id="circle2162"
   r="32"
   cy="400"
   cx="383.999"
   style="fill:#c68b87;fill-opacity:1" />
	<circle
   id="circle2164"
   r="32"
   cy="400"
   cx="463.999"
   style="fill:#ccf49f;fill-opacity:1" />
	<path
   id="path2166"
   d="M303.999,448c-17.648,0-32,14.352-32,32v32h64v-32C335.999,462.352,321.647,448,303.999,448z"
   style="fill:#ebd2ff;fill-opacity:1" />
	<path
   id="path2168"
   d="M383.999,448c-17.648,0-32,14.352-32,32v32h64v-32C415.999,462.352,401.647,448,383.999,448z"
   style="fill:#c68b87;fill-opacity:1" />
	<path
   id="path2170"
   d="M463.999,448c-17.648,0-32,14.352-32,32v32h64v-32C495.999,462.352,481.647,448,463.999,448z"
   style="fill:#ccf49f;fill-opacity:1" />
</g>
<g
   id="g2198">
	<path
   id="path2174"
   d="M79.999,144c0,26.472,21.528,48,48,48s48-21.528,48-48s-21.528-48-48-48S79.999,117.528,79.999,144z    M159.999,144c0,17.648-14.352,32-32,32s-32-14.352-32-32s14.352-32,32-32S159.999,126.352,159.999,144z"
   style="fill:#1F2933;" />
	<path
   id="path2176"
   d="M245.655,229.656l56-56c3.128-3.128,3.128-8.184,0-11.312l-24-24   c-2.96-2.96-7.696-3.136-10.864-0.416l-55.072,47.2l-3.72,1.6L158.359,208h-94.36c-2.312,0-4.504,0.992-6.016,2.736l-56,64   c-1.872,2.136-2.472,5.104-1.568,7.8l24,72c0.736,2.192,2.384,3.968,4.528,4.856c2.144,0.872,4.552,0.8,6.64-0.232l32-16   c2.736-1.368,4.36-4.112,4.416-7.008V472c0,22.056,17.944,40,40,40h64c4.416,0,8-3.576,8-8V260.944l24-12l35.576-17.792   C244.351,230.776,245.047,230.264,245.655,229.656z M71.999,335.848c-0.016-0.944-0.2-1.888-0.568-2.816L57.159,297.36   l14.84-18.552V335.848z M172.423,248.848c-2.712,1.352-4.424,4.12-4.424,7.152v240h-32V368c0-4.424-3.584-8-8-8s-8,3.576-8,8v128   h-8c-13.232,0-24-10.768-24-24V256c0-3.4-2.144-6.424-5.352-7.544c-3.2-1.128-6.776-0.104-8.896,2.544l-32,40   c-1.8,2.248-2.248,5.296-1.184,7.968l13.272,33.168l-17.168,8.584l-19.632-58.904L67.631,224h92.368   c1.08,0,2.152-0.216,3.152-0.648l56-24c0.744-0.32,1.44-0.752,2.056-1.28l50.376-43.168L284.687,168l-49.424,49.424   L172.423,248.848z"
   style="fill:#1F2933;" />
	<polygon
   id="polygon2178"
   points="111.999,256 119.999,256 119.999,320 135.999,320 135.999,256 143.999,256 143.999,240    111.999,240  "
   style="fill:#1F2933;" />
	<path
   id="path2180"
   d="M511.999,400c0-26.472-21.528-48-48-48c-16.688,0-31.392,8.568-40,21.52   c-8.608-12.96-23.312-21.52-40-21.52s-31.392,8.568-40,21.52c-8.608-12.96-23.312-21.52-40-21.52c-26.472,0-48,21.528-48,48   c0,16.688,8.568,31.392,21.52,40c-12.952,8.608-21.52,23.312-21.52,40v32h8h8v-32c0-17.648,14.352-32,32-32s32,14.352,32,32v32h8h8   v-32c0-17.648,14.352-32,32-32s32,14.352,32,32v32h8h8v-32c0-17.648,14.352-32,32-32s32,14.352,32,32v32h8h8v-32   c0-16.688-8.568-31.392-21.52-40C503.431,431.392,511.999,416.688,511.999,400z M423.999,426.48c3.56,5.36,8.16,9.96,13.52,13.52   c-5.36,3.56-9.96,8.16-13.52,13.52c-3.56-5.36-8.16-9.968-13.52-13.52C415.839,436.44,420.439,431.84,423.999,426.48z M383.999,368   c17.648,0,32,14.352,32,32s-14.352,32-32,32s-32-14.352-32-32S366.351,368,383.999,368z M343.999,426.48   c3.56,5.36,8.16,9.96,13.52,13.52c-5.36,3.56-9.96,8.16-13.52,13.52c-3.56-5.36-8.16-9.968-13.52-13.52   C335.839,436.44,340.439,431.84,343.999,426.48z M271.999,400c0-17.648,14.352-32,32-32s32,14.352,32,32s-14.352,32-32,32   S271.999,417.648,271.999,400z M463.999,432c-17.648,0-32-14.352-32-32s14.352-32,32-32s32,14.352,32,32S481.647,432,463.999,432z"
   style="fill:#1F2933;" />
	<path
   id="path2182"
   d="M503.999,0h-296c-4.416,0-8,3.576-8,8v152h8h8V16h280v216c0,13.232-10.768,24-24,24h-248v8v8h248   c22.056,0,40-17.944,40-40V8C511.999,3.576,508.415,0,503.999,0z"
   style="fill:#1F2933;" />
	<path
   id="path2184"
   d="M335.999,88c4.416,0,8-3.576,8-8v-8h24v8c0,4.424,3.584,8,8,8h32v24h-32c-4.416,0-8,3.576-8,8v32   c0,4.424,3.584,8,8,8h32v24h-32c-4.416,0-8,3.576-8,8v32c0,4.424,3.584,8,8,8h80c4.416,0,8-3.576,8-8v-32c0-4.424-3.584-8-8-8h-32   v-24h32c4.416,0,8-3.576,8-8v-32c0-4.424-3.584-8-8-8h-32V88h32c4.416,0,8-3.576,8-8V48c0-4.424-3.584-8-8-8h-80   c-4.416,0-8,3.576-8,8v8h-24v-8c0-4.424-3.584-8-8-8h-80c-4.416,0-8,3.576-8,8v32c0,4.424,3.584,8,8,8H335.999z M447.999,200v16   h-64v-16H447.999z M447.999,128v16h-64v-16H447.999z M383.999,56h64v16h-64V56z M263.999,56h64v16h-64V56z"
   style="fill:#1F2933;" />
	<rect
   id="rect2186"
   height="16"
   width="88"
   style="fill:#1F2933;"
   y="104"
   x="255.999" />
	<rect
   id="rect2188"
   height="16"
   width="32"
   style="fill:#1F2933;"
   y="136"
   x="311.999" />
	<rect
   id="rect2190"
   height="16"
   width="24"
   style="fill:#1F2933;"
   y="168"
   x="319.999" />
	<rect
   id="rect2192"
   height="16"
   width="48"
   style="fill:#1F2933;"
   y="200"
   x="295.999" />
	<path
   id="path2194"
   d="M31.999,80h4l21.6,28.8c1.544,2.048,3.928,3.2,6.4,3.2c0.84,0,1.696-0.136,2.528-0.416   c3.272-1.088,5.472-4.136,5.472-7.584V80h48c13.232,0,24-10.768,24-24V24c0-13.232-10.768-24-24-24h-88c-13.232,0-24,10.768-24,24   v32C7.999,69.232,18.767,80,31.999,80z M23.999,24c0-4.416,3.592-8,8-8h88c4.408,0,8,3.584,8,8v32c0,4.416-3.592,8-8,8h-56   c-4.416,0-8,3.576-8,8v8l-9.6-12.8c-1.512-2.016-3.88-3.2-6.4-3.2h-8c-4.408,0-8-3.584-8-8V24z"
   style="fill:#1F2933;" />
	<rect
   id="rect2196"
   height="16"
   width="72"
   style="fill:#1F2933;"
   y="32"
   x="39.999" />
</g>
<g
   id="g2200">
</g>
<g
   id="g2202">
</g>
<g
   id="g2204">
</g>
<g
   id="g2206">
</g>
<g
   id="g2208">
</g>
<g
   id="g2210">
</g>
<g
   id="g2212">
</g>
<g
   id="g2214">
</g>
<g
   id="g2216">
</g>
<g
   id="g2218">
</g>
<g
   id="g2220">
</g>
<g
   id="g2222">
</g>
<g
   id="g2224">
</g>
<g
   id="g2226">
</g>
<g
   id="g2228">
</g>
</svg>
